ISO-10303-21;
HEADER;
FILE_DESCRIPTION(('FreeCAD Model'),'2;1');
FILE_NAME('Open CASCADE Shape Model','2026-03-26T14:28:27',(''),(''),
  'Open CASCADE STEP processor 7.8','FreeCAD','Unknown');
FILE_SCHEMA(('AUTOMOTIVE_DESIGN { 1 0 10303 214 1 1 1 1 }'));
ENDSEC;
DATA;
#1 = APPLICATION_PROTOCOL_DEFINITION('international standard',
  'automotive_design',2000,#2);
#2 = APPLICATION_CONTEXT(
  'core data for automotive mechanical design processes');
#3 = SHAPE_DEFINITION_REPRESENTATION(#4,#10);
#4 = PRODUCT_DEFINITION_SHAPE('','',#5);
#5 = PRODUCT_DEFINITION('design','',#6,#9);
#6 = PRODUCT_DEFINITION_FORMATION('','',#7);
#7 = PRODUCT('RTLHeatSinkPocket','RTLHeatSinkPocket','',(#8));
#8 = PRODUCT_CONTEXT('',#2,'mechanical');
#9 = PRODUCT_DEFINITION_CONTEXT('part definition',#2,'design');
#10 = ADVANCED_BREP_SHAPE_REPRESENTATION('',(#11,#15),#1745);
#11 = AXIS2_PLACEMENT_3D('',#12,#13,#14);
#12 = CARTESIAN_POINT('',(0.,0.,0.));
#13 = DIRECTION('',(0.,0.,1.));
#14 = DIRECTION('',(1.,0.,-0.));
#15 = MANIFOLD_SOLID_BREP('',#16);
#16 = CLOSED_SHELL('',(#17,#57,#88,#119,#498,#877,#894,#911,#928,#945,
    #962,#979,#996,#1013,#1030,#1047,#1064,#1081,#1098,#1115,#1132,#1149
    ,#1166,#1183,#1200,#1217,#1229,#1253,#1270,#1294,#1311,#1335,#1357,
    #1374,#1391,#1403,#1420,#1444,#1461,#1478,#1495,#1512,#1529,#1551,
    #1568,#1585,#1597,#1622,#1647,#1672,#1697,#1709,#1721,#1733));
#17 = ADVANCED_FACE('',(#18),#52,.T.);
#18 = FACE_BOUND('',#19,.T.);
#19 = EDGE_LOOP('',(#20,#30,#38,#46));
#20 = ORIENTED_EDGE('',*,*,#21,.T.);
#21 = EDGE_CURVE('',#22,#24,#26,.T.);
#22 = VERTEX_POINT('',#23);
#23 = CARTESIAN_POINT('',(87.5,22.,-19.5));
#24 = VERTEX_POINT('',#25);
#25 = CARTESIAN_POINT('',(87.5,26.,-19.5));
#26 = LINE('',#27,#28);
#27 = CARTESIAN_POINT('',(87.5,22.,-19.5));
#28 = VECTOR('',#29,1.);
#29 = DIRECTION('',(0.,1.,-2.2E-16));
#30 = ORIENTED_EDGE('',*,*,#31,.T.);
#31 = EDGE_CURVE('',#24,#32,#34,.T.);
#32 = VERTEX_POINT('',#33);
#33 = CARTESIAN_POINT('',(87.5,26.,19.5));
#34 = LINE('',#35,#36);
#35 = CARTESIAN_POINT('',(87.5,26.,-19.5));
#36 = VECTOR('',#37,1.);
#37 = DIRECTION('',(0.,0.,1.));
#38 = ORIENTED_EDGE('',*,*,#39,.F.);
#39 = EDGE_CURVE('',#40,#32,#42,.T.);
#40 = VERTEX_POINT('',#41);
#41 = CARTESIAN_POINT('',(87.5,22.,19.5));
#42 = LINE('',#43,#44);
#43 = CARTESIAN_POINT('',(87.5,22.,19.5));
#44 = VECTOR('',#45,1.);
#45 = DIRECTION('',(0.,1.,-2.2E-16));
#46 = ORIENTED_EDGE('',*,*,#47,.F.);
#47 = EDGE_CURVE('',#22,#40,#48,.T.);
#48 = LINE('',#49,#50);
#49 = CARTESIAN_POINT('',(87.5,22.,-19.5));
#50 = VECTOR('',#51,1.);
#51 = DIRECTION('',(0.,0.,1.));
#52 = PLANE('',#53);
#53 = AXIS2_PLACEMENT_3D('',#54,#55,#56);
#54 = CARTESIAN_POINT('',(87.5,22.,-19.5));
#55 = DIRECTION('',(1.,0.,0.));
#56 = DIRECTION('',(0.,2.2E-16,1.));
#57 = ADVANCED_FACE('',(#58),#83,.F.);
#58 = FACE_BOUND('',#59,.F.);
#59 = EDGE_LOOP('',(#60,#61,#69,#77));
#60 = ORIENTED_EDGE('',*,*,#21,.T.);
#61 = ORIENTED_EDGE('',*,*,#62,.T.);
#62 = EDGE_CURVE('',#24,#63,#65,.T.);
#63 = VERTEX_POINT('',#64);
#64 = CARTESIAN_POINT('',(127.5,26.,-19.5));
#65 = LINE('',#66,#67);
#66 = CARTESIAN_POINT('',(87.5,26.,-19.5));
#67 = VECTOR('',#68,1.);
#68 = DIRECTION('',(1.,0.,0.));
#69 = ORIENTED_EDGE('',*,*,#70,.F.);
#70 = EDGE_CURVE('',#71,#63,#73,.T.);
#71 = VERTEX_POINT('',#72);
#72 = CARTESIAN_POINT('',(127.5,22.,-19.5));
#73 = LINE('',#74,#75);
#74 = CARTESIAN_POINT('',(127.5,22.,-19.5));
#75 = VECTOR('',#76,1.);
#76 = DIRECTION('',(0.,1.,-2.2E-16));
#77 = ORIENTED_EDGE('',*,*,#78,.F.);
#78 = EDGE_CURVE('',#22,#71,#79,.T.);
#79 = LINE('',#80,#81);
#80 = CARTESIAN_POINT('',(87.5,22.,-19.5));
#81 = VECTOR('',#82,1.);
#82 = DIRECTION('',(1.,0.,0.));
#83 = PLANE('',#84);
#84 = AXIS2_PLACEMENT_3D('',#85,#86,#87);
#85 = CARTESIAN_POINT('',(87.5,22.,-19.5));
#86 = DIRECTION('',(0.,-2.2E-16,-1.));
#87 = DIRECTION('',(1.,0.,0.));
#88 = ADVANCED_FACE('',(#89),#114,.T.);
#89 = FACE_BOUND('',#90,.T.);
#90 = EDGE_LOOP('',(#91,#92,#100,#108));
#91 = ORIENTED_EDGE('',*,*,#39,.T.);
#92 = ORIENTED_EDGE('',*,*,#93,.T.);
#93 = EDGE_CURVE('',#32,#94,#96,.T.);
#94 = VERTEX_POINT('',#95);
#95 = CARTESIAN_POINT('',(127.5,26.,19.5));
#96 = LINE('',#97,#98);
#97 = CARTESIAN_POINT('',(87.5,26.,19.5));
#98 = VECTOR('',#99,1.);
#99 = DIRECTION('',(1.,0.,0.));
#100 = ORIENTED_EDGE('',*,*,#101,.F.);
#101 = EDGE_CURVE('',#102,#94,#104,.T.);
#102 = VERTEX_POINT('',#103);
#103 = CARTESIAN_POINT('',(127.5,22.,19.5));
#104 = LINE('',#105,#106);
#105 = CARTESIAN_POINT('',(127.5,22.,19.5));
#106 = VECTOR('',#107,1.);
#107 = DIRECTION('',(0.,1.,-2.2E-16));
#108 = ORIENTED_EDGE('',*,*,#109,.F.);
#109 = EDGE_CURVE('',#40,#102,#110,.T.);
#110 = LINE('',#111,#112);
#111 = CARTESIAN_POINT('',(87.5,22.,19.5));
#112 = VECTOR('',#113,1.);
#113 = DIRECTION('',(1.,0.,0.));
#114 = PLANE('',#115);
#115 = AXIS2_PLACEMENT_3D('',#116,#117,#118);
#116 = CARTESIAN_POINT('',(87.5,22.,19.5));
#117 = DIRECTION('',(0.,-2.2E-16,-1.));
#118 = DIRECTION('',(1.,0.,0.));
#119 = ADVANCED_FACE('',(#120,#293,#304,#315,#326,#337,#348,#382,#393,
    #404,#415,#426,#437,#448,#459),#493,.F.);
#120 = FACE_BOUND('',#121,.F.);
#121 = EDGE_LOOP('',(#122,#123,#124,#132,#140,#148,#156,#164,#172,#180,
    #188,#196,#204,#212,#221,#229,#238,#246,#254,#262,#270,#278,#286,
    #292));
#122 = ORIENTED_EDGE('',*,*,#47,.F.);
#123 = ORIENTED_EDGE('',*,*,#78,.T.);
#124 = ORIENTED_EDGE('',*,*,#125,.T.);
#125 = EDGE_CURVE('',#71,#126,#128,.T.);
#126 = VERTEX_POINT('',#127);
#127 = CARTESIAN_POINT('',(127.5,22.,-55.75));
#128 = LINE('',#129,#130);
#129 = CARTESIAN_POINT('',(127.5,22.,-19.5));
#130 = VECTOR('',#131,1.);
#131 = DIRECTION('',(0.,0.,-1.));
#132 = ORIENTED_EDGE('',*,*,#133,.F.);
#133 = EDGE_CURVE('',#134,#126,#136,.T.);
#134 = VERTEX_POINT('',#135);
#135 = CARTESIAN_POINT('',(-87.5,22.,-55.75));
#136 = LINE('',#137,#138);
#137 = CARTESIAN_POINT('',(-87.5,22.,-55.75));
#138 = VECTOR('',#139,1.);
#139 = DIRECTION('',(1.,0.,0.));
#140 = ORIENTED_EDGE('',*,*,#141,.F.);
#141 = EDGE_CURVE('',#142,#134,#144,.T.);
#142 = VERTEX_POINT('',#143);
#143 = CARTESIAN_POINT('',(-87.5,22.,-38.5));
#144 = LINE('',#145,#146);
#145 = CARTESIAN_POINT('',(-87.5,22.,-38.5));
#146 = VECTOR('',#147,1.);
#147 = DIRECTION('',(0.,0.,-1.));
#148 = ORIENTED_EDGE('',*,*,#149,.F.);
#149 = EDGE_CURVE('',#150,#142,#152,.T.);
#150 = VERTEX_POINT('',#151);
#151 = CARTESIAN_POINT('',(-94.5,22.,-38.5));
#152 = LINE('',#153,#154);
#153 = CARTESIAN_POINT('',(-94.5,22.,-38.5));
#154 = VECTOR('',#155,1.);
#155 = DIRECTION('',(1.,0.,0.));
#156 = ORIENTED_EDGE('',*,*,#157,.F.);
#157 = EDGE_CURVE('',#158,#150,#160,.T.);
#158 = VERTEX_POINT('',#159);
#159 = CARTESIAN_POINT('',(-94.5,22.,-19.5));
#160 = LINE('',#161,#162);
#161 = CARTESIAN_POINT('',(-94.5,22.,-19.5));
#162 = VECTOR('',#163,1.);
#163 = DIRECTION('',(0.,0.,-1.));
#164 = ORIENTED_EDGE('',*,*,#165,.F.);
#165 = EDGE_CURVE('',#166,#158,#168,.T.);
#166 = VERTEX_POINT('',#167);
#167 = CARTESIAN_POINT('',(-87.5,22.,-19.5));
#168 = LINE('',#169,#170);
#169 = CARTESIAN_POINT('',(-87.5,22.,-19.5));
#170 = VECTOR('',#171,1.);
#171 = DIRECTION('',(-1.,0.,0.));
#172 = ORIENTED_EDGE('',*,*,#173,.F.);
#173 = EDGE_CURVE('',#174,#166,#176,.T.);
#174 = VERTEX_POINT('',#175);
#175 = CARTESIAN_POINT('',(-87.5,22.,19.5));
#176 = LINE('',#177,#178);
#177 = CARTESIAN_POINT('',(-87.5,22.,19.5));
#178 = VECTOR('',#179,1.);
#179 = DIRECTION('',(0.,0.,-1.));
#180 = ORIENTED_EDGE('',*,*,#181,.F.);
#181 = EDGE_CURVE('',#182,#174,#184,.T.);
#182 = VERTEX_POINT('',#183);
#183 = CARTESIAN_POINT('',(-127.5,22.,19.5));
#184 = LINE('',#185,#186);
#185 = CARTESIAN_POINT('',(-127.5,22.,19.5));
#186 = VECTOR('',#187,1.);
#187 = DIRECTION('',(1.,0.,0.));
#188 = ORIENTED_EDGE('',*,*,#189,.F.);
#189 = EDGE_CURVE('',#190,#182,#192,.T.);
#190 = VERTEX_POINT('',#191);
#191 = CARTESIAN_POINT('',(-127.5,22.,58.5));
#192 = LINE('',#193,#194);
#193 = CARTESIAN_POINT('',(-127.5,22.,58.5));
#194 = VECTOR('',#195,1.);
#195 = DIRECTION('',(0.,0.,-1.));
#196 = ORIENTED_EDGE('',*,*,#197,.F.);
#197 = EDGE_CURVE('',#198,#190,#200,.T.);
#198 = VERTEX_POINT('',#199);
#199 = CARTESIAN_POINT('',(-70.,22.,58.5));
#200 = LINE('',#201,#202);
#201 = CARTESIAN_POINT('',(127.5,22.,58.5));
#202 = VECTOR('',#203,1.);
#203 = DIRECTION('',(-1.,0.,0.));
#204 = ORIENTED_EDGE('',*,*,#205,.F.);
#205 = EDGE_CURVE('',#206,#198,#208,.T.);
#206 = VERTEX_POINT('',#207);
#207 = CARTESIAN_POINT('',(-70.,22.,55.5));
#208 = LINE('',#209,#210);
#209 = CARTESIAN_POINT('',(-70.,22.,29.845365430685));
#210 = VECTOR('',#211,1.);
#211 = DIRECTION('',(0.,0.,1.));
#212 = ORIENTED_EDGE('',*,*,#213,.F.);
#213 = EDGE_CURVE('',#214,#206,#216,.T.);
#214 = VERTEX_POINT('',#215);
#215 = CARTESIAN_POINT('',(-67.,22.,52.5));
#216 = CIRCLE('',#217,3.);
#217 = AXIS2_PLACEMENT_3D('',#218,#219,#220);
#218 = CARTESIAN_POINT('',(-67.,22.,55.5));
#219 = DIRECTION('',(0.,1.,-2.2E-16));
#220 = DIRECTION('',(-1.,0.,0.));
#221 = ORIENTED_EDGE('',*,*,#222,.F.);
#222 = EDGE_CURVE('',#223,#214,#225,.T.);
#223 = VERTEX_POINT('',#224);
#224 = CARTESIAN_POINT('',(-51.99999999999,22.,52.5));
#225 = LINE('',#226,#227);
#226 = CARTESIAN_POINT('',(-20.99639283247,22.,52.5));
#227 = VECTOR('',#228,1.);
#228 = DIRECTION('',(-1.,0.,0.));
#229 = ORIENTED_EDGE('',*,*,#230,.F.);
#230 = EDGE_CURVE('',#231,#223,#233,.T.);
#231 = VERTEX_POINT('',#232);
#232 = CARTESIAN_POINT('',(-49.,22.,55.5));
#233 = CIRCLE('',#234,3.);
#234 = AXIS2_PLACEMENT_3D('',#235,#236,#237);
#235 = CARTESIAN_POINT('',(-52.,22.,55.5));
#236 = DIRECTION('',(0.,1.,-2.2E-16));
#237 = DIRECTION('',(-1.,0.,0.));
#238 = ORIENTED_EDGE('',*,*,#239,.F.);
#239 = EDGE_CURVE('',#240,#231,#242,.T.);
#240 = VERTEX_POINT('',#241);
#241 = CARTESIAN_POINT('',(-49.,22.,58.5));
#242 = LINE('',#243,#244);
#243 = CARTESIAN_POINT('',(-49.,22.,31.845365430685));
#244 = VECTOR('',#245,1.);
#245 = DIRECTION('',(0.,0.,-1.));
#246 = ORIENTED_EDGE('',*,*,#247,.F.);
#247 = EDGE_CURVE('',#248,#240,#250,.T.);
#248 = VERTEX_POINT('',#249);
#249 = CARTESIAN_POINT('',(16.,22.,58.5));
#250 = LINE('',#251,#252);
#251 = CARTESIAN_POINT('',(127.5,22.,58.5));
#252 = VECTOR('',#253,1.);
#253 = DIRECTION('',(-1.,0.,0.));
#254 = ORIENTED_EDGE('',*,*,#255,.F.);
#255 = EDGE_CURVE('',#256,#248,#258,.T.);
#256 = VERTEX_POINT('',#257);
#257 = CARTESIAN_POINT('',(16.,22.,47.5));
#258 = LINE('',#259,#260);
#259 = CARTESIAN_POINT('',(16.,22.,25.845365430685));
#260 = VECTOR('',#261,1.);
#261 = DIRECTION('',(0.,0.,1.));
#262 = ORIENTED_EDGE('',*,*,#263,.F.);
#263 = EDGE_CURVE('',#264,#256,#266,.T.);
#264 = VERTEX_POINT('',#265);
#265 = CARTESIAN_POINT('',(40.,22.,47.5));
#266 = LINE('',#267,#268);
#267 = CARTESIAN_POINT('',(25.003607167526,22.,47.5));
#268 = VECTOR('',#269,1.);
#269 = DIRECTION('',(-1.,0.,0.));
#270 = ORIENTED_EDGE('',*,*,#271,.F.);
#271 = EDGE_CURVE('',#272,#264,#274,.T.);
#272 = VERTEX_POINT('',#273);
#273 = CARTESIAN_POINT('',(40.,22.,58.5));
#274 = LINE('',#275,#276);
#275 = CARTESIAN_POINT('',(40.,22.,35.845365430685));
#276 = VECTOR('',#277,1.);
#277 = DIRECTION('',(0.,0.,-1.));
#278 = ORIENTED_EDGE('',*,*,#279,.F.);
#279 = EDGE_CURVE('',#280,#272,#282,.T.);
#280 = VERTEX_POINT('',#281);
#281 = CARTESIAN_POINT('',(127.5,22.,58.5));
#282 = LINE('',#283,#284);
#283 = CARTESIAN_POINT('',(127.5,22.,58.5));
#284 = VECTOR('',#285,1.);
#285 = DIRECTION('',(-1.,0.,0.));
#286 = ORIENTED_EDGE('',*,*,#287,.F.);
#287 = EDGE_CURVE('',#102,#280,#288,.T.);
#288 = LINE('',#289,#290);
#289 = CARTESIAN_POINT('',(127.5,22.,19.5));
#290 = VECTOR('',#291,1.);
#291 = DIRECTION('',(0.,0.,1.));
#292 = ORIENTED_EDGE('',*,*,#109,.F.);
#293 = FACE_BOUND('',#294,.F.);
#294 = EDGE_LOOP('',(#295));
#295 = ORIENTED_EDGE('',*,*,#296,.F.);
#296 = EDGE_CURVE('',#297,#297,#299,.T.);
#297 = VERTEX_POINT('',#298);
#298 = CARTESIAN_POINT('',(-79.,22.,-50.));
#299 = CIRCLE('',#300,1.5);
#300 = AXIS2_PLACEMENT_3D('',#301,#302,#303);
#301 = CARTESIAN_POINT('',(-77.5,22.,-50.));
#302 = DIRECTION('',(0.,1.,-2.2E-16));
#303 = DIRECTION('',(-1.,0.,0.));
#304 = FACE_BOUND('',#305,.F.);
#305 = EDGE_LOOP('',(#306));
#306 = ORIENTED_EDGE('',*,*,#307,.F.);
#307 = EDGE_CURVE('',#308,#308,#310,.T.);
#308 = VERTEX_POINT('',#309);
#309 = CARTESIAN_POINT('',(-89.5,22.,-29.));
#310 = CIRCLE('',#311,1.5);
#311 = AXIS2_PLACEMENT_3D('',#312,#313,#314);
#312 = CARTESIAN_POINT('',(-88.,22.,-29.));
#313 = DIRECTION('',(0.,1.,-0.));
#314 = DIRECTION('',(-1.,0.,0.));
#315 = FACE_BOUND('',#316,.F.);
#316 = EDGE_LOOP('',(#317));
#317 = ORIENTED_EDGE('',*,*,#318,.F.);
#318 = EDGE_CURVE('',#319,#319,#321,.T.);
#319 = VERTEX_POINT('',#320);
#320 = CARTESIAN_POINT('',(-30.,22.,-50.));
#321 = CIRCLE('',#322,1.5);
#322 = AXIS2_PLACEMENT_3D('',#323,#324,#325);
#323 = CARTESIAN_POINT('',(-28.5,22.,-50.));
#324 = DIRECTION('',(0.,1.,-2.2E-16));
#325 = DIRECTION('',(-1.,0.,0.));
#326 = FACE_BOUND('',#327,.F.);
#327 = EDGE_LOOP('',(#328));
#328 = ORIENTED_EDGE('',*,*,#329,.F.);
#329 = EDGE_CURVE('',#330,#330,#332,.T.);
#330 = VERTEX_POINT('',#331);
#331 = CARTESIAN_POINT('',(-10.,22.,-40.));
#332 = CIRCLE('',#333,1.5);
#333 = AXIS2_PLACEMENT_3D('',#334,#335,#336);
#334 = CARTESIAN_POINT('',(-8.5,22.,-40.));
#335 = DIRECTION('',(0.,1.,-2.2E-16));
#336 = DIRECTION('',(-1.,0.,0.));
#337 = FACE_BOUND('',#338,.F.);
#338 = EDGE_LOOP('',(#339));
#339 = ORIENTED_EDGE('',*,*,#340,.F.);
#340 = EDGE_CURVE('',#341,#341,#343,.T.);
#341 = VERTEX_POINT('',#342);
#342 = CARTESIAN_POINT('',(-79.,22.,8.));
#343 = CIRCLE('',#344,1.5);
#344 = AXIS2_PLACEMENT_3D('',#345,#346,#347);
#345 = CARTESIAN_POINT('',(-77.5,22.,8.));
#346 = DIRECTION('',(0.,1.,-2.2E-16));
#347 = DIRECTION('',(-1.,0.,0.));
#348 = FACE_BOUND('',#349,.F.);
#349 = EDGE_LOOP('',(#350,#360,#368,#376));
#350 = ORIENTED_EDGE('',*,*,#351,.T.);
#351 = EDGE_CURVE('',#352,#354,#356,.T.);
#352 = VERTEX_POINT('',#353);
#353 = CARTESIAN_POINT('',(-124.4999999999,22.,22.5));
#354 = VERTEX_POINT('',#355);
#355 = CARTESIAN_POINT('',(-94.5,22.,22.5));
#356 = LINE('',#357,#358);
#357 = CARTESIAN_POINT('',(-42.24639283247,22.,22.5));
#358 = VECTOR('',#359,1.);
#359 = DIRECTION('',(1.,0.,0.));
#360 = ORIENTED_EDGE('',*,*,#361,.T.);
#361 = EDGE_CURVE('',#354,#362,#364,.T.);
#362 = VERTEX_POINT('',#363);
#363 = CARTESIAN_POINT('',(-94.5,22.,52.499999999967));
#364 = LINE('',#365,#366);
#365 = CARTESIAN_POINT('',(-94.5,22.,28.345365430669));
#366 = VECTOR('',#367,1.);
#367 = DIRECTION('',(0.,0.,1.));
#368 = ORIENTED_EDGE('',*,*,#369,.T.);
#369 = EDGE_CURVE('',#362,#370,#372,.T.);
#370 = VERTEX_POINT('',#371);
#371 = CARTESIAN_POINT('',(-124.4999999999,22.,52.499999999967));
#372 = LINE('',#373,#374);
#373 = CARTESIAN_POINT('',(-57.24639283245,22.,52.499999999967));
#374 = VECTOR('',#375,1.);
#375 = DIRECTION('',(-1.,0.,0.));
#376 = ORIENTED_EDGE('',*,*,#377,.T.);
#377 = EDGE_CURVE('',#370,#352,#378,.T.);
#378 = LINE('',#379,#380);
#379 = CARTESIAN_POINT('',(-124.4999999999,22.,13.345365430685));
#380 = VECTOR('',#381,1.);
#381 = DIRECTION('',(0.,0.,-1.));
#382 = FACE_BOUND('',#383,.F.);
#383 = EDGE_LOOP('',(#384));
#384 = ORIENTED_EDGE('',*,*,#385,.F.);
#385 = EDGE_CURVE('',#386,#386,#388,.T.);
#386 = VERTEX_POINT('',#387);
#387 = CARTESIAN_POINT('',(-89.5,22.,29.));
#388 = CIRCLE('',#389,1.5);
#389 = AXIS2_PLACEMENT_3D('',#390,#391,#392);
#390 = CARTESIAN_POINT('',(-88.,22.,29.));
#391 = DIRECTION('',(0.,1.,-0.));
#392 = DIRECTION('',(-1.,0.,0.));
#393 = FACE_BOUND('',#394,.F.);
#394 = EDGE_LOOP('',(#395));
#395 = ORIENTED_EDGE('',*,*,#396,.F.);
#396 = EDGE_CURVE('',#397,#397,#399,.T.);
#397 = VERTEX_POINT('',#398);
#398 = CARTESIAN_POINT('',(-30.,22.,8.));
#399 = CIRCLE('',#400,1.5);
#400 = AXIS2_PLACEMENT_3D('',#401,#402,#403);
#401 = CARTESIAN_POINT('',(-28.5,22.,8.));
#402 = DIRECTION('',(0.,1.,-2.2E-16));
#403 = DIRECTION('',(-1.,0.,0.));
#404 = FACE_BOUND('',#405,.F.);
#405 = EDGE_LOOP('',(#406));
#406 = ORIENTED_EDGE('',*,*,#407,.F.);
#407 = EDGE_CURVE('',#408,#408,#410,.T.);
#408 = VERTEX_POINT('',#409);
#409 = CARTESIAN_POINT('',(-10.,22.,15.));
#410 = CIRCLE('',#411,1.5);
#411 = AXIS2_PLACEMENT_3D('',#412,#413,#414);
#412 = CARTESIAN_POINT('',(-8.5,22.,15.));
#413 = DIRECTION('',(0.,1.,-2.2E-16));
#414 = DIRECTION('',(-1.,0.,0.));
#415 = FACE_BOUND('',#416,.F.);
#416 = EDGE_LOOP('',(#417));
#417 = ORIENTED_EDGE('',*,*,#418,.F.);
#418 = EDGE_CURVE('',#419,#419,#421,.T.);
#419 = VERTEX_POINT('',#420);
#420 = CARTESIAN_POINT('',(28.,22.,-40.));
#421 = CIRCLE('',#422,1.5);
#422 = AXIS2_PLACEMENT_3D('',#423,#424,#425);
#423 = CARTESIAN_POINT('',(29.5,22.,-40.));
#424 = DIRECTION('',(0.,1.,-2.2E-16));
#425 = DIRECTION('',(-1.,0.,0.));
#426 = FACE_BOUND('',#427,.F.);
#427 = EDGE_LOOP('',(#428));
#428 = ORIENTED_EDGE('',*,*,#429,.F.);
#429 = EDGE_CURVE('',#430,#430,#432,.T.);
#430 = VERTEX_POINT('',#431);
#431 = CARTESIAN_POINT('',(86.5,22.,-29.));
#432 = CIRCLE('',#433,1.5);
#433 = AXIS2_PLACEMENT_3D('',#434,#435,#436);
#434 = CARTESIAN_POINT('',(88.,22.,-29.));
#435 = DIRECTION('',(0.,1.,-0.));
#436 = DIRECTION('',(-1.,0.,0.));
#437 = FACE_BOUND('',#438,.F.);
#438 = EDGE_LOOP('',(#439));
#439 = ORIENTED_EDGE('',*,*,#440,.F.);
#440 = EDGE_CURVE('',#441,#441,#443,.T.);
#441 = VERTEX_POINT('',#442);
#442 = CARTESIAN_POINT('',(28.,22.,15.));
#443 = CIRCLE('',#444,1.5);
#444 = AXIS2_PLACEMENT_3D('',#445,#446,#447);
#445 = CARTESIAN_POINT('',(29.5,22.,15.));
#446 = DIRECTION('',(0.,1.,-2.2E-16));
#447 = DIRECTION('',(-1.,0.,0.));
#448 = FACE_BOUND('',#449,.F.);
#449 = EDGE_LOOP('',(#450));
#450 = ORIENTED_EDGE('',*,*,#451,.F.);
#451 = EDGE_CURVE('',#452,#452,#454,.T.);
#452 = VERTEX_POINT('',#453);
#453 = CARTESIAN_POINT('',(86.5,22.,29.));
#454 = CIRCLE('',#455,1.5);
#455 = AXIS2_PLACEMENT_3D('',#456,#457,#458);
#456 = CARTESIAN_POINT('',(88.,22.,29.));
#457 = DIRECTION('',(0.,1.,-0.));
#458 = DIRECTION('',(-1.,0.,0.));
#459 = FACE_BOUND('',#460,.F.);
#460 = EDGE_LOOP('',(#461,#471,#479,#487));
#461 = ORIENTED_EDGE('',*,*,#462,.T.);
#462 = EDGE_CURVE('',#463,#465,#467,.T.);
#463 = VERTEX_POINT('',#464);
#464 = CARTESIAN_POINT('',(94.5,22.,22.5));
#465 = VERTEX_POINT('',#466);
#466 = CARTESIAN_POINT('',(124.5,22.,22.5));
#467 = LINE('',#468,#469);
#468 = CARTESIAN_POINT('',(67.253607167526,22.,22.5));
#469 = VECTOR('',#470,1.);
#470 = DIRECTION('',(1.,0.,0.));
#471 = ORIENTED_EDGE('',*,*,#472,.T.);
#472 = EDGE_CURVE('',#465,#473,#475,.T.);
#473 = VERTEX_POINT('',#474);
#474 = CARTESIAN_POINT('',(124.5,22.,52.5));
#475 = LINE('',#476,#477);
#476 = CARTESIAN_POINT('',(124.5,22.,28.345365430685));
#477 = VECTOR('',#478,1.);
#478 = DIRECTION('',(0.,0.,1.));
#479 = ORIENTED_EDGE('',*,*,#480,.T.);
#480 = EDGE_CURVE('',#473,#481,#483,.T.);
#481 = VERTEX_POINT('',#482);
#482 = CARTESIAN_POINT('',(94.5,22.,52.5));
#483 = LINE('',#484,#485);
#484 = CARTESIAN_POINT('',(52.253607167526,22.,52.5));
#485 = VECTOR('',#486,1.);
#486 = DIRECTION('',(-1.,0.,0.));
#487 = ORIENTED_EDGE('',*,*,#488,.T.);
#488 = EDGE_CURVE('',#481,#463,#489,.T.);
#489 = LINE('',#490,#491);
#490 = CARTESIAN_POINT('',(94.5,22.,13.345365430685));
#491 = VECTOR('',#492,1.);
#492 = DIRECTION('',(0.,0.,-1.));
#493 = PLANE('',#494);
#494 = AXIS2_PLACEMENT_3D('',#495,#496,#497);
#495 = CARTESIAN_POINT('',(10.007214335051,22.,4.19073086137));
#496 = DIRECTION('',(0.,1.,0.));
#497 = DIRECTION('',(0.,0.,1.));
#498 = ADVANCED_FACE('',(#499,#672,#683,#694,#705,#716,#727,#761,#772,
    #783,#794,#805,#816,#827,#838),#872,.T.);
#499 = FACE_BOUND('',#500,.T.);
#500 = EDGE_LOOP('',(#501,#502,#503,#511,#519,#527,#535,#543,#551,#559,
    #567,#575,#583,#591,#600,#608,#617,#625,#633,#641,#649,#657,#665,
    #671));
#501 = ORIENTED_EDGE('',*,*,#31,.F.);
#502 = ORIENTED_EDGE('',*,*,#62,.T.);
#503 = ORIENTED_EDGE('',*,*,#504,.T.);
#504 = EDGE_CURVE('',#63,#505,#507,.T.);
#505 = VERTEX_POINT('',#506);
#506 = CARTESIAN_POINT('',(127.5,26.,-55.75));
#507 = LINE('',#508,#509);
#508 = CARTESIAN_POINT('',(127.5,26.,-19.5));
#509 = VECTOR('',#510,1.);
#510 = DIRECTION('',(0.,0.,-1.));
#511 = ORIENTED_EDGE('',*,*,#512,.F.);
#512 = EDGE_CURVE('',#513,#505,#515,.T.);
#513 = VERTEX_POINT('',#514);
#514 = CARTESIAN_POINT('',(-87.5,26.,-55.75));
#515 = LINE('',#516,#517);
#516 = CARTESIAN_POINT('',(-87.5,26.,-55.75));
#517 = VECTOR('',#518,1.);
#518 = DIRECTION('',(1.,0.,0.));
#519 = ORIENTED_EDGE('',*,*,#520,.F.);
#520 = EDGE_CURVE('',#521,#513,#523,.T.);
#521 = VERTEX_POINT('',#522);
#522 = CARTESIAN_POINT('',(-87.5,26.,-38.5));
#523 = LINE('',#524,#525);
#524 = CARTESIAN_POINT('',(-87.5,26.,-38.5));
#525 = VECTOR('',#526,1.);
#526 = DIRECTION('',(0.,0.,-1.));
#527 = ORIENTED_EDGE('',*,*,#528,.F.);
#528 = EDGE_CURVE('',#529,#521,#531,.T.);
#529 = VERTEX_POINT('',#530);
#530 = CARTESIAN_POINT('',(-94.5,26.,-38.5));
#531 = LINE('',#532,#533);
#532 = CARTESIAN_POINT('',(-94.5,26.,-38.5));
#533 = VECTOR('',#534,1.);
#534 = DIRECTION('',(1.,0.,0.));
#535 = ORIENTED_EDGE('',*,*,#536,.F.);
#536 = EDGE_CURVE('',#537,#529,#539,.T.);
#537 = VERTEX_POINT('',#538);
#538 = CARTESIAN_POINT('',(-94.5,26.,-19.5));
#539 = LINE('',#540,#541);
#540 = CARTESIAN_POINT('',(-94.5,26.,-19.5));
#541 = VECTOR('',#542,1.);
#542 = DIRECTION('',(0.,0.,-1.));
#543 = ORIENTED_EDGE('',*,*,#544,.F.);
#544 = EDGE_CURVE('',#545,#537,#547,.T.);
#545 = VERTEX_POINT('',#546);
#546 = CARTESIAN_POINT('',(-87.5,26.,-19.5));
#547 = LINE('',#548,#549);
#548 = CARTESIAN_POINT('',(-87.5,26.,-19.5));
#549 = VECTOR('',#550,1.);
#550 = DIRECTION('',(-1.,0.,0.));
#551 = ORIENTED_EDGE('',*,*,#552,.F.);
#552 = EDGE_CURVE('',#553,#545,#555,.T.);
#553 = VERTEX_POINT('',#554);
#554 = CARTESIAN_POINT('',(-87.5,26.,19.5));
#555 = LINE('',#556,#557);
#556 = CARTESIAN_POINT('',(-87.5,26.,19.5));
#557 = VECTOR('',#558,1.);
#558 = DIRECTION('',(0.,0.,-1.));
#559 = ORIENTED_EDGE('',*,*,#560,.F.);
#560 = EDGE_CURVE('',#561,#553,#563,.T.);
#561 = VERTEX_POINT('',#562);
#562 = CARTESIAN_POINT('',(-127.5,26.,19.5));
#563 = LINE('',#564,#565);
#564 = CARTESIAN_POINT('',(-127.5,26.,19.5));
#565 = VECTOR('',#566,1.);
#566 = DIRECTION('',(1.,0.,0.));
#567 = ORIENTED_EDGE('',*,*,#568,.F.);
#568 = EDGE_CURVE('',#569,#561,#571,.T.);
#569 = VERTEX_POINT('',#570);
#570 = CARTESIAN_POINT('',(-127.5,26.,58.5));
#571 = LINE('',#572,#573);
#572 = CARTESIAN_POINT('',(-127.5,26.,58.5));
#573 = VECTOR('',#574,1.);
#574 = DIRECTION('',(0.,0.,-1.));
#575 = ORIENTED_EDGE('',*,*,#576,.F.);
#576 = EDGE_CURVE('',#577,#569,#579,.T.);
#577 = VERTEX_POINT('',#578);
#578 = CARTESIAN_POINT('',(-70.,26.,58.5));
#579 = LINE('',#580,#581);
#580 = CARTESIAN_POINT('',(127.5,26.,58.5));
#581 = VECTOR('',#582,1.);
#582 = DIRECTION('',(-1.,0.,0.));
#583 = ORIENTED_EDGE('',*,*,#584,.F.);
#584 = EDGE_CURVE('',#585,#577,#587,.T.);
#585 = VERTEX_POINT('',#586);
#586 = CARTESIAN_POINT('',(-70.,26.,55.5));
#587 = LINE('',#588,#589);
#588 = CARTESIAN_POINT('',(-70.,26.,55.5));
#589 = VECTOR('',#590,1.);
#590 = DIRECTION('',(0.,0.,1.));
#591 = ORIENTED_EDGE('',*,*,#592,.F.);
#592 = EDGE_CURVE('',#593,#585,#595,.T.);
#593 = VERTEX_POINT('',#594);
#594 = CARTESIAN_POINT('',(-67.,26.,52.5));
#595 = CIRCLE('',#596,3.);
#596 = AXIS2_PLACEMENT_3D('',#597,#598,#599);
#597 = CARTESIAN_POINT('',(-67.,26.,55.5));
#598 = DIRECTION('',(0.,1.,-0.));
#599 = DIRECTION('',(-1.,0.,0.));
#600 = ORIENTED_EDGE('',*,*,#601,.F.);
#601 = EDGE_CURVE('',#602,#593,#604,.T.);
#602 = VERTEX_POINT('',#603);
#603 = CARTESIAN_POINT('',(-51.99999999999,26.,52.5));
#604 = LINE('',#605,#606);
#605 = CARTESIAN_POINT('',(-51.99999999999,26.,52.5));
#606 = VECTOR('',#607,1.);
#607 = DIRECTION('',(-1.,0.,0.));
#608 = ORIENTED_EDGE('',*,*,#609,.F.);
#609 = EDGE_CURVE('',#610,#602,#612,.T.);
#610 = VERTEX_POINT('',#611);
#611 = CARTESIAN_POINT('',(-49.,26.,55.5));
#612 = CIRCLE('',#613,3.);
#613 = AXIS2_PLACEMENT_3D('',#614,#615,#616);
#614 = CARTESIAN_POINT('',(-52.,26.,55.5));
#615 = DIRECTION('',(0.,1.,-0.));
#616 = DIRECTION('',(-1.,0.,0.));
#617 = ORIENTED_EDGE('',*,*,#618,.F.);
#618 = EDGE_CURVE('',#619,#610,#621,.T.);
#619 = VERTEX_POINT('',#620);
#620 = CARTESIAN_POINT('',(-49.,26.,58.5));
#621 = LINE('',#622,#623);
#622 = CARTESIAN_POINT('',(-49.,26.,59.5));
#623 = VECTOR('',#624,1.);
#624 = DIRECTION('',(0.,0.,-1.));
#625 = ORIENTED_EDGE('',*,*,#626,.F.);
#626 = EDGE_CURVE('',#627,#619,#629,.T.);
#627 = VERTEX_POINT('',#628);
#628 = CARTESIAN_POINT('',(16.,26.,58.5));
#629 = LINE('',#630,#631);
#630 = CARTESIAN_POINT('',(127.5,26.,58.5));
#631 = VECTOR('',#632,1.);
#632 = DIRECTION('',(-1.,0.,0.));
#633 = ORIENTED_EDGE('',*,*,#634,.F.);
#634 = EDGE_CURVE('',#635,#627,#637,.T.);
#635 = VERTEX_POINT('',#636);
#636 = CARTESIAN_POINT('',(16.,26.,47.5));
#637 = LINE('',#638,#639);
#638 = CARTESIAN_POINT('',(16.,26.,47.5));
#639 = VECTOR('',#640,1.);
#640 = DIRECTION('',(0.,0.,1.));
#641 = ORIENTED_EDGE('',*,*,#642,.F.);
#642 = EDGE_CURVE('',#643,#635,#645,.T.);
#643 = VERTEX_POINT('',#644);
#644 = CARTESIAN_POINT('',(40.,26.,47.5));
#645 = LINE('',#646,#647);
#646 = CARTESIAN_POINT('',(40.,26.,47.5));
#647 = VECTOR('',#648,1.);
#648 = DIRECTION('',(-1.,0.,0.));
#649 = ORIENTED_EDGE('',*,*,#650,.F.);
#650 = EDGE_CURVE('',#651,#643,#653,.T.);
#651 = VERTEX_POINT('',#652);
#652 = CARTESIAN_POINT('',(40.,26.,58.5));
#653 = LINE('',#654,#655);
#654 = CARTESIAN_POINT('',(40.,26.,67.5));
#655 = VECTOR('',#656,1.);
#656 = DIRECTION('',(0.,0.,-1.));
#657 = ORIENTED_EDGE('',*,*,#658,.F.);
#658 = EDGE_CURVE('',#659,#651,#661,.T.);
#659 = VERTEX_POINT('',#660);
#660 = CARTESIAN_POINT('',(127.5,26.,58.5));
#661 = LINE('',#662,#663);
#662 = CARTESIAN_POINT('',(127.5,26.,58.5));
#663 = VECTOR('',#664,1.);
#664 = DIRECTION('',(-1.,0.,0.));
#665 = ORIENTED_EDGE('',*,*,#666,.F.);
#666 = EDGE_CURVE('',#94,#659,#667,.T.);
#667 = LINE('',#668,#669);
#668 = CARTESIAN_POINT('',(127.5,26.,19.5));
#669 = VECTOR('',#670,1.);
#670 = DIRECTION('',(0.,0.,1.));
#671 = ORIENTED_EDGE('',*,*,#93,.F.);
#672 = FACE_BOUND('',#673,.T.);
#673 = EDGE_LOOP('',(#674));
#674 = ORIENTED_EDGE('',*,*,#675,.F.);
#675 = EDGE_CURVE('',#676,#676,#678,.T.);
#676 = VERTEX_POINT('',#677);
#677 = CARTESIAN_POINT('',(-81.,26.,-50.));
#678 = CIRCLE('',#679,3.5);
#679 = AXIS2_PLACEMENT_3D('',#680,#681,#682);
#680 = CARTESIAN_POINT('',(-77.5,26.,-50.));
#681 = DIRECTION('',(0.,1.,-0.));
#682 = DIRECTION('',(-1.,0.,0.));
#683 = FACE_BOUND('',#684,.T.);
#684 = EDGE_LOOP('',(#685));
#685 = ORIENTED_EDGE('',*,*,#686,.F.);
#686 = EDGE_CURVE('',#687,#687,#689,.T.);
#687 = VERTEX_POINT('',#688);
#688 = CARTESIAN_POINT('',(-89.5,26.,-29.));
#689 = CIRCLE('',#690,1.5);
#690 = AXIS2_PLACEMENT_3D('',#691,#692,#693);
#691 = CARTESIAN_POINT('',(-88.,26.,-29.));
#692 = DIRECTION('',(0.,1.,-0.));
#693 = DIRECTION('',(-1.,0.,0.));
#694 = FACE_BOUND('',#695,.T.);
#695 = EDGE_LOOP('',(#696));
#696 = ORIENTED_EDGE('',*,*,#697,.F.);
#697 = EDGE_CURVE('',#698,#698,#700,.T.);
#698 = VERTEX_POINT('',#699);
#699 = CARTESIAN_POINT('',(-32.,26.,-50.));
#700 = CIRCLE('',#701,3.5);
#701 = AXIS2_PLACEMENT_3D('',#702,#703,#704);
#702 = CARTESIAN_POINT('',(-28.5,26.,-50.));
#703 = DIRECTION('',(0.,1.,-0.));
#704 = DIRECTION('',(-1.,0.,0.));
#705 = FACE_BOUND('',#706,.T.);
#706 = EDGE_LOOP('',(#707));
#707 = ORIENTED_EDGE('',*,*,#708,.F.);
#708 = EDGE_CURVE('',#709,#709,#711,.T.);
#709 = VERTEX_POINT('',#710);
#710 = CARTESIAN_POINT('',(-10.,26.,-40.));
#711 = CIRCLE('',#712,1.5);
#712 = AXIS2_PLACEMENT_3D('',#713,#714,#715);
#713 = CARTESIAN_POINT('',(-8.5,26.,-40.));
#714 = DIRECTION('',(0.,1.,-0.));
#715 = DIRECTION('',(-1.,0.,0.));
#716 = FACE_BOUND('',#717,.T.);
#717 = EDGE_LOOP('',(#718));
#718 = ORIENTED_EDGE('',*,*,#719,.F.);
#719 = EDGE_CURVE('',#720,#720,#722,.T.);
#720 = VERTEX_POINT('',#721);
#721 = CARTESIAN_POINT('',(-81.,26.,8.));
#722 = CIRCLE('',#723,3.5);
#723 = AXIS2_PLACEMENT_3D('',#724,#725,#726);
#724 = CARTESIAN_POINT('',(-77.5,26.,8.));
#725 = DIRECTION('',(0.,1.,-0.));
#726 = DIRECTION('',(-1.,0.,0.));
#727 = FACE_BOUND('',#728,.T.);
#728 = EDGE_LOOP('',(#729,#739,#747,#755));
#729 = ORIENTED_EDGE('',*,*,#730,.F.);
#730 = EDGE_CURVE('',#731,#733,#735,.T.);
#731 = VERTEX_POINT('',#732);
#732 = CARTESIAN_POINT('',(-94.5,26.,52.499999999967));
#733 = VERTEX_POINT('',#734);
#734 = CARTESIAN_POINT('',(-94.5,26.,22.5));
#735 = LINE('',#736,#737);
#736 = CARTESIAN_POINT('',(-94.5,26.,52.499999999967));
#737 = VECTOR('',#738,1.);
#738 = DIRECTION('',(0.,-2.22044604925E-16,-1.));
#739 = ORIENTED_EDGE('',*,*,#740,.F.);
#740 = EDGE_CURVE('',#741,#731,#743,.T.);
#741 = VERTEX_POINT('',#742);
#742 = CARTESIAN_POINT('',(-124.4999999999,26.,52.499999999967));
#743 = LINE('',#744,#745);
#744 = CARTESIAN_POINT('',(-124.4999999999,26.,52.499999999967));
#745 = VECTOR('',#746,1.);
#746 = DIRECTION('',(1.,0.,0.));
#747 = ORIENTED_EDGE('',*,*,#748,.F.);
#748 = EDGE_CURVE('',#749,#741,#751,.T.);
#749 = VERTEX_POINT('',#750);
#750 = CARTESIAN_POINT('',(-124.4999999999,26.,22.5));
#751 = LINE('',#752,#753);
#752 = CARTESIAN_POINT('',(-124.4999999999,26.,22.5));
#753 = VECTOR('',#754,1.);
#754 = DIRECTION('',(0.,2.22044604925E-16,1.));
#755 = ORIENTED_EDGE('',*,*,#756,.F.);
#756 = EDGE_CURVE('',#733,#749,#757,.T.);
#757 = LINE('',#758,#759);
#758 = CARTESIAN_POINT('',(-94.5,26.,22.5));
#759 = VECTOR('',#760,1.);
#760 = DIRECTION('',(-1.,0.,0.));
#761 = FACE_BOUND('',#762,.T.);
#762 = EDGE_LOOP('',(#763));
#763 = ORIENTED_EDGE('',*,*,#764,.F.);
#764 = EDGE_CURVE('',#765,#765,#767,.T.);
#765 = VERTEX_POINT('',#766);
#766 = CARTESIAN_POINT('',(-89.5,26.,29.));
#767 = CIRCLE('',#768,1.5);
#768 = AXIS2_PLACEMENT_3D('',#769,#770,#771);
#769 = CARTESIAN_POINT('',(-88.,26.,29.));
#770 = DIRECTION('',(0.,1.,-0.));
#771 = DIRECTION('',(-1.,0.,0.));
#772 = FACE_BOUND('',#773,.T.);
#773 = EDGE_LOOP('',(#774));
#774 = ORIENTED_EDGE('',*,*,#775,.F.);
#775 = EDGE_CURVE('',#776,#776,#778,.T.);
#776 = VERTEX_POINT('',#777);
#777 = CARTESIAN_POINT('',(-32.,26.,8.));
#778 = CIRCLE('',#779,3.5);
#779 = AXIS2_PLACEMENT_3D('',#780,#781,#782);
#780 = CARTESIAN_POINT('',(-28.5,26.,8.));
#781 = DIRECTION('',(0.,1.,-0.));
#782 = DIRECTION('',(-1.,0.,0.));
#783 = FACE_BOUND('',#784,.T.);
#784 = EDGE_LOOP('',(#785));
#785 = ORIENTED_EDGE('',*,*,#786,.F.);
#786 = EDGE_CURVE('',#787,#787,#789,.T.);
#787 = VERTEX_POINT('',#788);
#788 = CARTESIAN_POINT('',(-10.,26.,15.));
#789 = CIRCLE('',#790,1.5);
#790 = AXIS2_PLACEMENT_3D('',#791,#792,#793);
#791 = CARTESIAN_POINT('',(-8.5,26.,15.));
#792 = DIRECTION('',(0.,1.,-0.));
#793 = DIRECTION('',(-1.,0.,0.));
#794 = FACE_BOUND('',#795,.T.);
#795 = EDGE_LOOP('',(#796));
#796 = ORIENTED_EDGE('',*,*,#797,.F.);
#797 = EDGE_CURVE('',#798,#798,#800,.T.);
#798 = VERTEX_POINT('',#799);
#799 = CARTESIAN_POINT('',(28.,26.,-40.));
#800 = CIRCLE('',#801,1.5);
#801 = AXIS2_PLACEMENT_3D('',#802,#803,#804);
#802 = CARTESIAN_POINT('',(29.5,26.,-40.));
#803 = DIRECTION('',(0.,1.,-0.));
#804 = DIRECTION('',(-1.,0.,0.));
#805 = FACE_BOUND('',#806,.T.);
#806 = EDGE_LOOP('',(#807));
#807 = ORIENTED_EDGE('',*,*,#808,.F.);
#808 = EDGE_CURVE('',#809,#809,#811,.T.);
#809 = VERTEX_POINT('',#810);
#810 = CARTESIAN_POINT('',(86.5,26.,-29.));
#811 = CIRCLE('',#812,1.5);
#812 = AXIS2_PLACEMENT_3D('',#813,#814,#815);
#813 = CARTESIAN_POINT('',(88.,26.,-29.));
#814 = DIRECTION('',(0.,1.,-0.));
#815 = DIRECTION('',(-1.,0.,0.));
#816 = FACE_BOUND('',#817,.T.);
#817 = EDGE_LOOP('',(#818));
#818 = ORIENTED_EDGE('',*,*,#819,.F.);
#819 = EDGE_CURVE('',#820,#820,#822,.T.);
#820 = VERTEX_POINT('',#821);
#821 = CARTESIAN_POINT('',(28.,26.,15.));
#822 = CIRCLE('',#823,1.5);
#823 = AXIS2_PLACEMENT_3D('',#824,#825,#826);
#824 = CARTESIAN_POINT('',(29.5,26.,15.));
#825 = DIRECTION('',(0.,1.,-0.));
#826 = DIRECTION('',(-1.,0.,0.));
#827 = FACE_BOUND('',#828,.T.);
#828 = EDGE_LOOP('',(#829));
#829 = ORIENTED_EDGE('',*,*,#830,.F.);
#830 = EDGE_CURVE('',#831,#831,#833,.T.);
#831 = VERTEX_POINT('',#832);
#832 = CARTESIAN_POINT('',(86.5,26.,29.));
#833 = CIRCLE('',#834,1.5);
#834 = AXIS2_PLACEMENT_3D('',#835,#836,#837);
#835 = CARTESIAN_POINT('',(88.,26.,29.));
#836 = DIRECTION('',(0.,1.,-0.));
#837 = DIRECTION('',(-1.,0.,0.));
#838 = FACE_BOUND('',#839,.T.);
#839 = EDGE_LOOP('',(#840,#850,#858,#866));
#840 = ORIENTED_EDGE('',*,*,#841,.F.);
#841 = EDGE_CURVE('',#842,#844,#846,.T.);
#842 = VERTEX_POINT('',#843);
#843 = CARTESIAN_POINT('',(124.5,26.,52.5));
#844 = VERTEX_POINT('',#845);
#845 = CARTESIAN_POINT('',(124.5,26.,22.5));
#846 = LINE('',#847,#848);
#847 = CARTESIAN_POINT('',(124.5,26.,52.5));
#848 = VECTOR('',#849,1.);
#849 = DIRECTION('',(0.,-2.22044604925E-16,-1.));
#850 = ORIENTED_EDGE('',*,*,#851,.F.);
#851 = EDGE_CURVE('',#852,#842,#854,.T.);
#852 = VERTEX_POINT('',#853);
#853 = CARTESIAN_POINT('',(94.5,26.,52.5));
#854 = LINE('',#855,#856);
#855 = CARTESIAN_POINT('',(94.5,26.,52.5));
#856 = VECTOR('',#857,1.);
#857 = DIRECTION('',(1.,0.,0.));
#858 = ORIENTED_EDGE('',*,*,#859,.F.);
#859 = EDGE_CURVE('',#860,#852,#862,.T.);
#860 = VERTEX_POINT('',#861);
#861 = CARTESIAN_POINT('',(94.5,26.,22.5));
#862 = LINE('',#863,#864);
#863 = CARTESIAN_POINT('',(94.5,26.,22.5));
#864 = VECTOR('',#865,1.);
#865 = DIRECTION('',(0.,2.22044604925E-16,1.));
#866 = ORIENTED_EDGE('',*,*,#867,.F.);
#867 = EDGE_CURVE('',#844,#860,#868,.T.);
#868 = LINE('',#869,#870);
#869 = CARTESIAN_POINT('',(124.5,26.,22.5));
#870 = VECTOR('',#871,1.);
#871 = DIRECTION('',(-1.,0.,0.));
#872 = PLANE('',#873);
#873 = AXIS2_PLACEMENT_3D('',#874,#875,#876);
#874 = CARTESIAN_POINT('',(10.007214335051,26.,4.19073086137));
#875 = DIRECTION('',(0.,1.,0.));
#876 = DIRECTION('',(0.,0.,1.));
#877 = ADVANCED_FACE('',(#878),#889,.F.);
#878 = FACE_BOUND('',#879,.F.);
#879 = EDGE_LOOP('',(#880,#881,#882,#888));
#880 = ORIENTED_EDGE('',*,*,#70,.T.);
#881 = ORIENTED_EDGE('',*,*,#504,.T.);
#882 = ORIENTED_EDGE('',*,*,#883,.F.);
#883 = EDGE_CURVE('',#126,#505,#884,.T.);
#884 = LINE('',#885,#886);
#885 = CARTESIAN_POINT('',(127.5,22.,-55.75));
#886 = VECTOR('',#887,1.);
#887 = DIRECTION('',(0.,1.,-2.2E-16));
#888 = ORIENTED_EDGE('',*,*,#125,.F.);
#889 = PLANE('',#890);
#890 = AXIS2_PLACEMENT_3D('',#891,#892,#893);
#891 = CARTESIAN_POINT('',(127.5,22.,-19.5));
#892 = DIRECTION('',(-1.,0.,0.));
#893 = DIRECTION('',(0.,-2.2E-16,-1.));
#894 = ADVANCED_FACE('',(#895),#906,.T.);
#895 = FACE_BOUND('',#896,.T.);
#896 = EDGE_LOOP('',(#897,#898,#899,#905));
#897 = ORIENTED_EDGE('',*,*,#101,.T.);
#898 = ORIENTED_EDGE('',*,*,#666,.T.);
#899 = ORIENTED_EDGE('',*,*,#900,.F.);
#900 = EDGE_CURVE('',#280,#659,#901,.T.);
#901 = LINE('',#902,#903);
#902 = CARTESIAN_POINT('',(127.5,22.,58.5));
#903 = VECTOR('',#904,1.);
#904 = DIRECTION('',(0.,1.,-2.2E-16));
#905 = ORIENTED_EDGE('',*,*,#287,.F.);
#906 = PLANE('',#907);
#907 = AXIS2_PLACEMENT_3D('',#908,#909,#910);
#908 = CARTESIAN_POINT('',(127.5,22.,19.5));
#909 = DIRECTION('',(1.,0.,0.));
#910 = DIRECTION('',(0.,2.2E-16,1.));
#911 = ADVANCED_FACE('',(#912),#923,.T.);
#912 = FACE_BOUND('',#913,.T.);
#913 = EDGE_LOOP('',(#914,#920,#921,#922));
#914 = ORIENTED_EDGE('',*,*,#915,.T.);
#915 = EDGE_CURVE('',#134,#513,#916,.T.);
#916 = LINE('',#917,#918);
#917 = CARTESIAN_POINT('',(-87.5,22.,-55.75));
#918 = VECTOR('',#919,1.);
#919 = DIRECTION('',(0.,1.,-2.2E-16));
#920 = ORIENTED_EDGE('',*,*,#512,.T.);
#921 = ORIENTED_EDGE('',*,*,#883,.F.);
#922 = ORIENTED_EDGE('',*,*,#133,.F.);
#923 = PLANE('',#924);
#924 = AXIS2_PLACEMENT_3D('',#925,#926,#927);
#925 = CARTESIAN_POINT('',(-87.5,22.,-55.75));
#926 = DIRECTION('',(0.,-2.2E-16,-1.));
#927 = DIRECTION('',(1.,0.,0.));
#928 = ADVANCED_FACE('',(#929),#940,.T.);
#929 = FACE_BOUND('',#930,.T.);
#930 = EDGE_LOOP('',(#931,#932,#933,#934));
#931 = ORIENTED_EDGE('',*,*,#279,.F.);
#932 = ORIENTED_EDGE('',*,*,#900,.T.);
#933 = ORIENTED_EDGE('',*,*,#658,.T.);
#934 = ORIENTED_EDGE('',*,*,#935,.F.);
#935 = EDGE_CURVE('',#272,#651,#936,.T.);
#936 = LINE('',#937,#938);
#937 = CARTESIAN_POINT('',(40.,24.,58.5));
#938 = VECTOR('',#939,1.);
#939 = DIRECTION('',(0.,1.,-2.2E-16));
#940 = PLANE('',#941);
#941 = AXIS2_PLACEMENT_3D('',#942,#943,#944);
#942 = CARTESIAN_POINT('',(127.5,22.,58.5));
#943 = DIRECTION('',(0.,2.2E-16,1.));
#944 = DIRECTION('',(-1.,0.,0.));
#945 = ADVANCED_FACE('',(#946),#957,.T.);
#946 = FACE_BOUND('',#947,.T.);
#947 = EDGE_LOOP('',(#948,#954,#955,#956));
#948 = ORIENTED_EDGE('',*,*,#949,.T.);
#949 = EDGE_CURVE('',#142,#521,#950,.T.);
#950 = LINE('',#951,#952);
#951 = CARTESIAN_POINT('',(-87.5,22.,-38.5));
#952 = VECTOR('',#953,1.);
#953 = DIRECTION('',(0.,1.,-2.2E-16));
#954 = ORIENTED_EDGE('',*,*,#520,.T.);
#955 = ORIENTED_EDGE('',*,*,#915,.F.);
#956 = ORIENTED_EDGE('',*,*,#141,.F.);
#957 = PLANE('',#958);
#958 = AXIS2_PLACEMENT_3D('',#959,#960,#961);
#959 = CARTESIAN_POINT('',(-87.5,22.,-38.5));
#960 = DIRECTION('',(-1.,0.,0.));
#961 = DIRECTION('',(0.,-2.2E-16,-1.));
#962 = ADVANCED_FACE('',(#963),#974,.F.);
#963 = FACE_BOUND('',#964,.F.);
#964 = EDGE_LOOP('',(#965,#966,#967,#968));
#965 = ORIENTED_EDGE('',*,*,#650,.F.);
#966 = ORIENTED_EDGE('',*,*,#935,.F.);
#967 = ORIENTED_EDGE('',*,*,#271,.T.);
#968 = ORIENTED_EDGE('',*,*,#969,.F.);
#969 = EDGE_CURVE('',#643,#264,#970,.T.);
#970 = LINE('',#971,#972);
#971 = CARTESIAN_POINT('',(40.,26.,47.5));
#972 = VECTOR('',#973,1.);
#973 = DIRECTION('',(0.,-1.,2.2E-16));
#974 = PLANE('',#975);
#975 = AXIS2_PLACEMENT_3D('',#976,#977,#978);
#976 = CARTESIAN_POINT('',(40.,26.,67.5));
#977 = DIRECTION('',(1.,0.,0.));
#978 = DIRECTION('',(0.,-2.2E-16,-1.));
#979 = ADVANCED_FACE('',(#980),#991,.T.);
#980 = FACE_BOUND('',#981,.T.);
#981 = EDGE_LOOP('',(#982,#988,#989,#990));
#982 = ORIENTED_EDGE('',*,*,#983,.T.);
#983 = EDGE_CURVE('',#150,#529,#984,.T.);
#984 = LINE('',#985,#986);
#985 = CARTESIAN_POINT('',(-94.5,22.,-38.5));
#986 = VECTOR('',#987,1.);
#987 = DIRECTION('',(0.,1.,-2.2E-16));
#988 = ORIENTED_EDGE('',*,*,#528,.T.);
#989 = ORIENTED_EDGE('',*,*,#949,.F.);
#990 = ORIENTED_EDGE('',*,*,#149,.F.);
#991 = PLANE('',#992);
#992 = AXIS2_PLACEMENT_3D('',#993,#994,#995);
#993 = CARTESIAN_POINT('',(-94.5,22.,-38.5));
#994 = DIRECTION('',(0.,-2.2E-16,-1.));
#995 = DIRECTION('',(1.,0.,0.));
#996 = ADVANCED_FACE('',(#997),#1008,.F.);
#997 = FACE_BOUND('',#998,.F.);
#998 = EDGE_LOOP('',(#999,#1000,#1001,#1002));
#999 = ORIENTED_EDGE('',*,*,#642,.F.);
#1000 = ORIENTED_EDGE('',*,*,#969,.T.);
#1001 = ORIENTED_EDGE('',*,*,#263,.T.);
#1002 = ORIENTED_EDGE('',*,*,#1003,.F.);
#1003 = EDGE_CURVE('',#635,#256,#1004,.T.);
#1004 = LINE('',#1005,#1006);
#1005 = CARTESIAN_POINT('',(16.,26.,47.5));
#1006 = VECTOR('',#1007,1.);
#1007 = DIRECTION('',(0.,-1.,2.2E-16));
#1008 = PLANE('',#1009);
#1009 = AXIS2_PLACEMENT_3D('',#1010,#1011,#1012);
#1010 = CARTESIAN_POINT('',(40.,26.,47.5));
#1011 = DIRECTION('',(-0.,-2.2E-16,-1.));
#1012 = DIRECTION('',(-1.,0.,0.));
#1013 = ADVANCED_FACE('',(#1014),#1025,.T.);
#1014 = FACE_BOUND('',#1015,.T.);
#1015 = EDGE_LOOP('',(#1016,#1022,#1023,#1024));
#1016 = ORIENTED_EDGE('',*,*,#1017,.T.);
#1017 = EDGE_CURVE('',#158,#537,#1018,.T.);
#1018 = LINE('',#1019,#1020);
#1019 = CARTESIAN_POINT('',(-94.5,22.,-19.5));
#1020 = VECTOR('',#1021,1.);
#1021 = DIRECTION('',(0.,1.,-2.2E-16));
#1022 = ORIENTED_EDGE('',*,*,#536,.T.);
#1023 = ORIENTED_EDGE('',*,*,#983,.F.);
#1024 = ORIENTED_EDGE('',*,*,#157,.F.);
#1025 = PLANE('',#1026);
#1026 = AXIS2_PLACEMENT_3D('',#1027,#1028,#1029);
#1027 = CARTESIAN_POINT('',(-94.5,22.,-19.5));
#1028 = DIRECTION('',(-1.,0.,0.));
#1029 = DIRECTION('',(0.,-2.2E-16,-1.));
#1030 = ADVANCED_FACE('',(#1031),#1042,.F.);
#1031 = FACE_BOUND('',#1032,.F.);
#1032 = EDGE_LOOP('',(#1033,#1034,#1035,#1036));
#1033 = ORIENTED_EDGE('',*,*,#634,.F.);
#1034 = ORIENTED_EDGE('',*,*,#1003,.T.);
#1035 = ORIENTED_EDGE('',*,*,#255,.T.);
#1036 = ORIENTED_EDGE('',*,*,#1037,.F.);
#1037 = EDGE_CURVE('',#627,#248,#1038,.T.);
#1038 = LINE('',#1039,#1040);
#1039 = CARTESIAN_POINT('',(16.,24.,58.5));
#1040 = VECTOR('',#1041,1.);
#1041 = DIRECTION('',(0.,-1.,2.2E-16));
#1042 = PLANE('',#1043);
#1043 = AXIS2_PLACEMENT_3D('',#1044,#1045,#1046);
#1044 = CARTESIAN_POINT('',(16.,26.,47.5));
#1045 = DIRECTION('',(-1.,0.,0.));
#1046 = DIRECTION('',(0.,2.2E-16,1.));
#1047 = ADVANCED_FACE('',(#1048),#1059,.T.);
#1048 = FACE_BOUND('',#1049,.T.);
#1049 = EDGE_LOOP('',(#1050,#1056,#1057,#1058));
#1050 = ORIENTED_EDGE('',*,*,#1051,.T.);
#1051 = EDGE_CURVE('',#166,#545,#1052,.T.);
#1052 = LINE('',#1053,#1054);
#1053 = CARTESIAN_POINT('',(-87.5,22.,-19.5));
#1054 = VECTOR('',#1055,1.);
#1055 = DIRECTION('',(0.,1.,-2.2E-16));
#1056 = ORIENTED_EDGE('',*,*,#544,.T.);
#1057 = ORIENTED_EDGE('',*,*,#1017,.F.);
#1058 = ORIENTED_EDGE('',*,*,#165,.F.);
#1059 = PLANE('',#1060);
#1060 = AXIS2_PLACEMENT_3D('',#1061,#1062,#1063);
#1061 = CARTESIAN_POINT('',(-87.5,22.,-19.5));
#1062 = DIRECTION('',(0.,2.2E-16,1.));
#1063 = DIRECTION('',(-1.,0.,0.));
#1064 = ADVANCED_FACE('',(#1065),#1076,.T.);
#1065 = FACE_BOUND('',#1066,.T.);
#1066 = EDGE_LOOP('',(#1067,#1068,#1069,#1070));
#1067 = ORIENTED_EDGE('',*,*,#247,.F.);
#1068 = ORIENTED_EDGE('',*,*,#1037,.F.);
#1069 = ORIENTED_EDGE('',*,*,#626,.T.);
#1070 = ORIENTED_EDGE('',*,*,#1071,.F.);
#1071 = EDGE_CURVE('',#240,#619,#1072,.T.);
#1072 = LINE('',#1073,#1074);
#1073 = CARTESIAN_POINT('',(-49.,24.,58.5));
#1074 = VECTOR('',#1075,1.);
#1075 = DIRECTION('',(0.,1.,-2.2E-16));
#1076 = PLANE('',#1077);
#1077 = AXIS2_PLACEMENT_3D('',#1078,#1079,#1080);
#1078 = CARTESIAN_POINT('',(127.5,22.,58.5));
#1079 = DIRECTION('',(0.,2.2E-16,1.));
#1080 = DIRECTION('',(-1.,0.,0.));
#1081 = ADVANCED_FACE('',(#1082),#1093,.T.);
#1082 = FACE_BOUND('',#1083,.T.);
#1083 = EDGE_LOOP('',(#1084,#1090,#1091,#1092));
#1084 = ORIENTED_EDGE('',*,*,#1085,.T.);
#1085 = EDGE_CURVE('',#174,#553,#1086,.T.);
#1086 = LINE('',#1087,#1088);
#1087 = CARTESIAN_POINT('',(-87.5,22.,19.5));
#1088 = VECTOR('',#1089,1.);
#1089 = DIRECTION('',(0.,1.,-2.2E-16));
#1090 = ORIENTED_EDGE('',*,*,#552,.T.);
#1091 = ORIENTED_EDGE('',*,*,#1051,.F.);
#1092 = ORIENTED_EDGE('',*,*,#173,.F.);
#1093 = PLANE('',#1094);
#1094 = AXIS2_PLACEMENT_3D('',#1095,#1096,#1097);
#1095 = CARTESIAN_POINT('',(-87.5,22.,19.5));
#1096 = DIRECTION('',(-1.,0.,0.));
#1097 = DIRECTION('',(0.,-2.2E-16,-1.));
#1098 = ADVANCED_FACE('',(#1099),#1110,.F.);
#1099 = FACE_BOUND('',#1100,.F.);
#1100 = EDGE_LOOP('',(#1101,#1102,#1103,#1104));
#1101 = ORIENTED_EDGE('',*,*,#618,.F.);
#1102 = ORIENTED_EDGE('',*,*,#1071,.F.);
#1103 = ORIENTED_EDGE('',*,*,#239,.T.);
#1104 = ORIENTED_EDGE('',*,*,#1105,.F.);
#1105 = EDGE_CURVE('',#610,#231,#1106,.T.);
#1106 = LINE('',#1107,#1108);
#1107 = CARTESIAN_POINT('',(-49.,26.,55.5));
#1108 = VECTOR('',#1109,1.);
#1109 = DIRECTION('',(0.,-1.,2.2E-16));
#1110 = PLANE('',#1111);
#1111 = AXIS2_PLACEMENT_3D('',#1112,#1113,#1114);
#1112 = CARTESIAN_POINT('',(-49.,26.,59.5));
#1113 = DIRECTION('',(1.,0.,0.));
#1114 = DIRECTION('',(0.,-2.2E-16,-1.));
#1115 = ADVANCED_FACE('',(#1116),#1127,.T.);
#1116 = FACE_BOUND('',#1117,.T.);
#1117 = EDGE_LOOP('',(#1118,#1124,#1125,#1126));
#1118 = ORIENTED_EDGE('',*,*,#1119,.T.);
#1119 = EDGE_CURVE('',#182,#561,#1120,.T.);
#1120 = LINE('',#1121,#1122);
#1121 = CARTESIAN_POINT('',(-127.5,22.,19.5));
#1122 = VECTOR('',#1123,1.);
#1123 = DIRECTION('',(0.,1.,-2.2E-16));
#1124 = ORIENTED_EDGE('',*,*,#560,.T.);
#1125 = ORIENTED_EDGE('',*,*,#1085,.F.);
#1126 = ORIENTED_EDGE('',*,*,#181,.F.);
#1127 = PLANE('',#1128);
#1128 = AXIS2_PLACEMENT_3D('',#1129,#1130,#1131);
#1129 = CARTESIAN_POINT('',(-127.5,22.,19.5));
#1130 = DIRECTION('',(0.,-2.2E-16,-1.));
#1131 = DIRECTION('',(1.,0.,0.));
#1132 = ADVANCED_FACE('',(#1133),#1144,.F.);
#1133 = FACE_BOUND('',#1134,.F.);
#1134 = EDGE_LOOP('',(#1135,#1136,#1137,#1138));
#1135 = ORIENTED_EDGE('',*,*,#609,.F.);
#1136 = ORIENTED_EDGE('',*,*,#1105,.T.);
#1137 = ORIENTED_EDGE('',*,*,#230,.T.);
#1138 = ORIENTED_EDGE('',*,*,#1139,.F.);
#1139 = EDGE_CURVE('',#602,#223,#1140,.T.);
#1140 = LINE('',#1141,#1142);
#1141 = CARTESIAN_POINT('',(-51.99999999999,26.,52.5));
#1142 = VECTOR('',#1143,1.);
#1143 = DIRECTION('',(0.,-1.,2.2E-16));
#1144 = CYLINDRICAL_SURFACE('',#1145,3.);
#1145 = AXIS2_PLACEMENT_3D('',#1146,#1147,#1148);
#1146 = CARTESIAN_POINT('',(-52.,26.,55.5));
#1147 = DIRECTION('',(0.,1.,-2.2E-16));
#1148 = DIRECTION('',(-1.,0.,0.));
#1149 = ADVANCED_FACE('',(#1150),#1161,.T.);
#1150 = FACE_BOUND('',#1151,.T.);
#1151 = EDGE_LOOP('',(#1152,#1158,#1159,#1160));
#1152 = ORIENTED_EDGE('',*,*,#1153,.T.);
#1153 = EDGE_CURVE('',#190,#569,#1154,.T.);
#1154 = LINE('',#1155,#1156);
#1155 = CARTESIAN_POINT('',(-127.5,22.,58.5));
#1156 = VECTOR('',#1157,1.);
#1157 = DIRECTION('',(0.,1.,-2.2E-16));
#1158 = ORIENTED_EDGE('',*,*,#568,.T.);
#1159 = ORIENTED_EDGE('',*,*,#1119,.F.);
#1160 = ORIENTED_EDGE('',*,*,#189,.F.);
#1161 = PLANE('',#1162);
#1162 = AXIS2_PLACEMENT_3D('',#1163,#1164,#1165);
#1163 = CARTESIAN_POINT('',(-127.5,22.,58.5));
#1164 = DIRECTION('',(-1.,0.,0.));
#1165 = DIRECTION('',(0.,-2.2E-16,-1.));
#1166 = ADVANCED_FACE('',(#1167),#1178,.F.);
#1167 = FACE_BOUND('',#1168,.F.);
#1168 = EDGE_LOOP('',(#1169,#1170,#1171,#1172));
#1169 = ORIENTED_EDGE('',*,*,#601,.F.);
#1170 = ORIENTED_EDGE('',*,*,#1139,.T.);
#1171 = ORIENTED_EDGE('',*,*,#222,.T.);
#1172 = ORIENTED_EDGE('',*,*,#1173,.F.);
#1173 = EDGE_CURVE('',#593,#214,#1174,.T.);
#1174 = LINE('',#1175,#1176);
#1175 = CARTESIAN_POINT('',(-67.,26.,52.5));
#1176 = VECTOR('',#1177,1.);
#1177 = DIRECTION('',(0.,-1.,2.2E-16));
#1178 = PLANE('',#1179);
#1179 = AXIS2_PLACEMENT_3D('',#1180,#1181,#1182);
#1180 = CARTESIAN_POINT('',(-51.99999999999,26.,52.5));
#1181 = DIRECTION('',(-0.,-2.2E-16,-1.));
#1182 = DIRECTION('',(-1.,0.,0.));
#1183 = ADVANCED_FACE('',(#1184),#1195,.T.);
#1184 = FACE_BOUND('',#1185,.T.);
#1185 = EDGE_LOOP('',(#1186,#1187,#1193,#1194));
#1186 = ORIENTED_EDGE('',*,*,#197,.F.);
#1187 = ORIENTED_EDGE('',*,*,#1188,.F.);
#1188 = EDGE_CURVE('',#577,#198,#1189,.T.);
#1189 = LINE('',#1190,#1191);
#1190 = CARTESIAN_POINT('',(-70.,24.,58.5));
#1191 = VECTOR('',#1192,1.);
#1192 = DIRECTION('',(0.,-1.,2.2E-16));
#1193 = ORIENTED_EDGE('',*,*,#576,.T.);
#1194 = ORIENTED_EDGE('',*,*,#1153,.F.);
#1195 = PLANE('',#1196);
#1196 = AXIS2_PLACEMENT_3D('',#1197,#1198,#1199);
#1197 = CARTESIAN_POINT('',(127.5,22.,58.5));
#1198 = DIRECTION('',(0.,2.2E-16,1.));
#1199 = DIRECTION('',(-1.,0.,0.));
#1200 = ADVANCED_FACE('',(#1201),#1212,.F.);
#1201 = FACE_BOUND('',#1202,.F.);
#1202 = EDGE_LOOP('',(#1203,#1204,#1205,#1206));
#1203 = ORIENTED_EDGE('',*,*,#592,.F.);
#1204 = ORIENTED_EDGE('',*,*,#1173,.T.);
#1205 = ORIENTED_EDGE('',*,*,#213,.T.);
#1206 = ORIENTED_EDGE('',*,*,#1207,.F.);
#1207 = EDGE_CURVE('',#585,#206,#1208,.T.);
#1208 = LINE('',#1209,#1210);
#1209 = CARTESIAN_POINT('',(-70.,26.,55.5));
#1210 = VECTOR('',#1211,1.);
#1211 = DIRECTION('',(0.,-1.,2.2E-16));
#1212 = CYLINDRICAL_SURFACE('',#1213,3.);
#1213 = AXIS2_PLACEMENT_3D('',#1214,#1215,#1216);
#1214 = CARTESIAN_POINT('',(-67.,26.,55.5));
#1215 = DIRECTION('',(0.,1.,-2.2E-16));
#1216 = DIRECTION('',(-1.,0.,0.));
#1217 = ADVANCED_FACE('',(#1218),#1224,.F.);
#1218 = FACE_BOUND('',#1219,.F.);
#1219 = EDGE_LOOP('',(#1220,#1221,#1222,#1223));
#1220 = ORIENTED_EDGE('',*,*,#584,.F.);
#1221 = ORIENTED_EDGE('',*,*,#1207,.T.);
#1222 = ORIENTED_EDGE('',*,*,#205,.T.);
#1223 = ORIENTED_EDGE('',*,*,#1188,.F.);
#1224 = PLANE('',#1225);
#1225 = AXIS2_PLACEMENT_3D('',#1226,#1227,#1228);
#1226 = CARTESIAN_POINT('',(-70.,26.,55.5));
#1227 = DIRECTION('',(-1.,0.,0.));
#1228 = DIRECTION('',(0.,2.2E-16,1.));
#1229 = ADVANCED_FACE('',(#1230),#1248,.F.);
#1230 = FACE_BOUND('',#1231,.F.);
#1231 = EDGE_LOOP('',(#1232,#1241,#1246,#1247));
#1232 = ORIENTED_EDGE('',*,*,#1233,.F.);
#1233 = EDGE_CURVE('',#1234,#1234,#1236,.T.);
#1234 = VERTEX_POINT('',#1235);
#1235 = CARTESIAN_POINT('',(-79.,29.,-50.));
#1236 = CIRCLE('',#1237,1.5);
#1237 = AXIS2_PLACEMENT_3D('',#1238,#1239,#1240);
#1238 = CARTESIAN_POINT('',(-77.5,29.,-50.));
#1239 = DIRECTION('',(0.,1.,-2.2E-16));
#1240 = DIRECTION('',(-1.,0.,0.));
#1241 = ORIENTED_EDGE('',*,*,#1242,.F.);
#1242 = EDGE_CURVE('',#297,#1234,#1243,.T.);
#1243 = B_SPLINE_CURVE_WITH_KNOTS('',1,(#1244,#1245),.UNSPECIFIED.,.F.,
  .F.,(2,2),(-4.,3.),.PIECEWISE_BEZIER_KNOTS.);
#1244 = CARTESIAN_POINT('',(-79.,22.,-50.));
#1245 = CARTESIAN_POINT('',(-79.,29.,-50.));
#1246 = ORIENTED_EDGE('',*,*,#296,.T.);
#1247 = ORIENTED_EDGE('',*,*,#1242,.T.);
#1248 = CYLINDRICAL_SURFACE('',#1249,1.5);
#1249 = AXIS2_PLACEMENT_3D('',#1250,#1251,#1252);
#1250 = CARTESIAN_POINT('',(-77.5,26.,-50.));
#1251 = DIRECTION('',(0.,1.,-2.2E-16));
#1252 = DIRECTION('',(-1.,0.,0.));
#1253 = ADVANCED_FACE('',(#1254),#1265,.F.);
#1254 = FACE_BOUND('',#1255,.T.);
#1255 = EDGE_LOOP('',(#1256,#1262,#1263,#1264));
#1256 = ORIENTED_EDGE('',*,*,#1257,.T.);
#1257 = EDGE_CURVE('',#308,#687,#1258,.T.);
#1258 = LINE('',#1259,#1260);
#1259 = CARTESIAN_POINT('',(-89.5,22.,-29.));
#1260 = VECTOR('',#1261,1.);
#1261 = DIRECTION('',(0.,1.,-2.2E-16));
#1262 = ORIENTED_EDGE('',*,*,#686,.T.);
#1263 = ORIENTED_EDGE('',*,*,#1257,.F.);
#1264 = ORIENTED_EDGE('',*,*,#307,.F.);
#1265 = CYLINDRICAL_SURFACE('',#1266,1.5);
#1266 = AXIS2_PLACEMENT_3D('',#1267,#1268,#1269);
#1267 = CARTESIAN_POINT('',(-88.,22.,-29.));
#1268 = DIRECTION('',(0.,-1.,2.2E-16));
#1269 = DIRECTION('',(-1.,0.,0.));
#1270 = ADVANCED_FACE('',(#1271),#1289,.F.);
#1271 = FACE_BOUND('',#1272,.F.);
#1272 = EDGE_LOOP('',(#1273,#1282,#1287,#1288));
#1273 = ORIENTED_EDGE('',*,*,#1274,.F.);
#1274 = EDGE_CURVE('',#1275,#1275,#1277,.T.);
#1275 = VERTEX_POINT('',#1276);
#1276 = CARTESIAN_POINT('',(-30.,29.,-50.));
#1277 = CIRCLE('',#1278,1.5);
#1278 = AXIS2_PLACEMENT_3D('',#1279,#1280,#1281);
#1279 = CARTESIAN_POINT('',(-28.5,29.,-50.));
#1280 = DIRECTION('',(0.,1.,-2.2E-16));
#1281 = DIRECTION('',(-1.,0.,0.));
#1282 = ORIENTED_EDGE('',*,*,#1283,.F.);
#1283 = EDGE_CURVE('',#319,#1275,#1284,.T.);
#1284 = B_SPLINE_CURVE_WITH_KNOTS('',1,(#1285,#1286),.UNSPECIFIED.,.F.,
  .F.,(2,2),(-4.,3.),.PIECEWISE_BEZIER_KNOTS.);
#1285 = CARTESIAN_POINT('',(-30.,22.,-50.));
#1286 = CARTESIAN_POINT('',(-30.,29.,-50.));
#1287 = ORIENTED_EDGE('',*,*,#318,.T.);
#1288 = ORIENTED_EDGE('',*,*,#1283,.T.);
#1289 = CYLINDRICAL_SURFACE('',#1290,1.5);
#1290 = AXIS2_PLACEMENT_3D('',#1291,#1292,#1293);
#1291 = CARTESIAN_POINT('',(-28.5,26.,-50.));
#1292 = DIRECTION('',(0.,1.,-2.2E-16));
#1293 = DIRECTION('',(-1.,0.,0.));
#1294 = ADVANCED_FACE('',(#1295),#1306,.F.);
#1295 = FACE_BOUND('',#1296,.F.);
#1296 = EDGE_LOOP('',(#1297,#1298,#1304,#1305));
#1297 = ORIENTED_EDGE('',*,*,#708,.F.);
#1298 = ORIENTED_EDGE('',*,*,#1299,.T.);
#1299 = EDGE_CURVE('',#709,#330,#1300,.T.);
#1300 = LINE('',#1301,#1302);
#1301 = CARTESIAN_POINT('',(-10.,26.,-40.));
#1302 = VECTOR('',#1303,1.);
#1303 = DIRECTION('',(0.,-1.,2.2E-16));
#1304 = ORIENTED_EDGE('',*,*,#329,.T.);
#1305 = ORIENTED_EDGE('',*,*,#1299,.F.);
#1306 = CYLINDRICAL_SURFACE('',#1307,1.5);
#1307 = AXIS2_PLACEMENT_3D('',#1308,#1309,#1310);
#1308 = CARTESIAN_POINT('',(-8.5,26.,-40.));
#1309 = DIRECTION('',(0.,1.,-2.2E-16));
#1310 = DIRECTION('',(-1.,0.,0.));
#1311 = ADVANCED_FACE('',(#1312),#1330,.F.);
#1312 = FACE_BOUND('',#1313,.F.);
#1313 = EDGE_LOOP('',(#1314,#1323,#1328,#1329));
#1314 = ORIENTED_EDGE('',*,*,#1315,.F.);
#1315 = EDGE_CURVE('',#1316,#1316,#1318,.T.);
#1316 = VERTEX_POINT('',#1317);
#1317 = CARTESIAN_POINT('',(-79.,29.,8.));
#1318 = CIRCLE('',#1319,1.5);
#1319 = AXIS2_PLACEMENT_3D('',#1320,#1321,#1322);
#1320 = CARTESIAN_POINT('',(-77.5,29.,8.));
#1321 = DIRECTION('',(0.,1.,-2.2E-16));
#1322 = DIRECTION('',(-1.,0.,0.));
#1323 = ORIENTED_EDGE('',*,*,#1324,.F.);
#1324 = EDGE_CURVE('',#341,#1316,#1325,.T.);
#1325 = B_SPLINE_CURVE_WITH_KNOTS('',1,(#1326,#1327),.UNSPECIFIED.,.F.,
  .F.,(2,2),(-4.,3.),.PIECEWISE_BEZIER_KNOTS.);
#1326 = CARTESIAN_POINT('',(-79.,22.,8.));
#1327 = CARTESIAN_POINT('',(-79.,29.,8.));
#1328 = ORIENTED_EDGE('',*,*,#340,.T.);
#1329 = ORIENTED_EDGE('',*,*,#1324,.T.);
#1330 = CYLINDRICAL_SURFACE('',#1331,1.5);
#1331 = AXIS2_PLACEMENT_3D('',#1332,#1333,#1334);
#1332 = CARTESIAN_POINT('',(-77.5,26.,8.));
#1333 = DIRECTION('',(0.,1.,-2.2E-16));
#1334 = DIRECTION('',(-1.,0.,0.));
#1335 = ADVANCED_FACE('',(#1336),#1352,.F.);
#1336 = FACE_BOUND('',#1337,.F.);
#1337 = EDGE_LOOP('',(#1338,#1339,#1345,#1346));
#1338 = ORIENTED_EDGE('',*,*,#756,.F.);
#1339 = ORIENTED_EDGE('',*,*,#1340,.T.);
#1340 = EDGE_CURVE('',#733,#354,#1341,.T.);
#1341 = LINE('',#1342,#1343);
#1342 = CARTESIAN_POINT('',(-94.5,26.,22.5));
#1343 = VECTOR('',#1344,1.);
#1344 = DIRECTION('',(0.,-1.,2.22044604925E-16));
#1345 = ORIENTED_EDGE('',*,*,#351,.F.);
#1346 = ORIENTED_EDGE('',*,*,#1347,.F.);
#1347 = EDGE_CURVE('',#749,#352,#1348,.T.);
#1348 = LINE('',#1349,#1350);
#1349 = CARTESIAN_POINT('',(-124.4999999999,26.,22.5));
#1350 = VECTOR('',#1351,1.);
#1351 = DIRECTION('',(0.,-1.,2.22044604925E-16));
#1352 = PLANE('',#1353);
#1353 = AXIS2_PLACEMENT_3D('',#1354,#1355,#1356);
#1354 = CARTESIAN_POINT('',(-94.5,26.,22.5));
#1355 = DIRECTION('',(-0.,-2.22044604925E-16,-1.));
#1356 = DIRECTION('',(-1.,0.,0.));
#1357 = ADVANCED_FACE('',(#1358),#1369,.F.);
#1358 = FACE_BOUND('',#1359,.F.);
#1359 = EDGE_LOOP('',(#1360,#1361,#1362,#1363));
#1360 = ORIENTED_EDGE('',*,*,#748,.F.);
#1361 = ORIENTED_EDGE('',*,*,#1347,.T.);
#1362 = ORIENTED_EDGE('',*,*,#377,.F.);
#1363 = ORIENTED_EDGE('',*,*,#1364,.F.);
#1364 = EDGE_CURVE('',#741,#370,#1365,.T.);
#1365 = LINE('',#1366,#1367);
#1366 = CARTESIAN_POINT('',(-124.4999999999,26.,52.499999999967));
#1367 = VECTOR('',#1368,1.);
#1368 = DIRECTION('',(0.,-1.,2.22044604925E-16));
#1369 = PLANE('',#1370);
#1370 = AXIS2_PLACEMENT_3D('',#1371,#1372,#1373);
#1371 = CARTESIAN_POINT('',(-124.4999999999,26.,22.5));
#1372 = DIRECTION('',(-1.,0.,0.));
#1373 = DIRECTION('',(0.,2.22044604925E-16,1.));
#1374 = ADVANCED_FACE('',(#1375),#1386,.F.);
#1375 = FACE_BOUND('',#1376,.F.);
#1376 = EDGE_LOOP('',(#1377,#1378,#1379,#1380));
#1377 = ORIENTED_EDGE('',*,*,#740,.F.);
#1378 = ORIENTED_EDGE('',*,*,#1364,.T.);
#1379 = ORIENTED_EDGE('',*,*,#369,.F.);
#1380 = ORIENTED_EDGE('',*,*,#1381,.F.);
#1381 = EDGE_CURVE('',#731,#362,#1382,.T.);
#1382 = LINE('',#1383,#1384);
#1383 = CARTESIAN_POINT('',(-94.5,26.,52.499999999967));
#1384 = VECTOR('',#1385,1.);
#1385 = DIRECTION('',(0.,-1.,2.22044604925E-16));
#1386 = PLANE('',#1387);
#1387 = AXIS2_PLACEMENT_3D('',#1388,#1389,#1390);
#1388 = CARTESIAN_POINT('',(-124.4999999999,26.,52.499999999967));
#1389 = DIRECTION('',(0.,2.22044604925E-16,1.));
#1390 = DIRECTION('',(1.,0.,0.));
#1391 = ADVANCED_FACE('',(#1392),#1398,.F.);
#1392 = FACE_BOUND('',#1393,.F.);
#1393 = EDGE_LOOP('',(#1394,#1395,#1396,#1397));
#1394 = ORIENTED_EDGE('',*,*,#730,.F.);
#1395 = ORIENTED_EDGE('',*,*,#1381,.T.);
#1396 = ORIENTED_EDGE('',*,*,#361,.F.);
#1397 = ORIENTED_EDGE('',*,*,#1340,.F.);
#1398 = PLANE('',#1399);
#1399 = AXIS2_PLACEMENT_3D('',#1400,#1401,#1402);
#1400 = CARTESIAN_POINT('',(-94.5,26.,52.499999999967));
#1401 = DIRECTION('',(1.,0.,0.));
#1402 = DIRECTION('',(0.,-2.22044604925E-16,-1.));
#1403 = ADVANCED_FACE('',(#1404),#1415,.F.);
#1404 = FACE_BOUND('',#1405,.T.);
#1405 = EDGE_LOOP('',(#1406,#1412,#1413,#1414));
#1406 = ORIENTED_EDGE('',*,*,#1407,.T.);
#1407 = EDGE_CURVE('',#386,#765,#1408,.T.);
#1408 = LINE('',#1409,#1410);
#1409 = CARTESIAN_POINT('',(-89.5,22.,29.));
#1410 = VECTOR('',#1411,1.);
#1411 = DIRECTION('',(0.,1.,-2.2E-16));
#1412 = ORIENTED_EDGE('',*,*,#764,.T.);
#1413 = ORIENTED_EDGE('',*,*,#1407,.F.);
#1414 = ORIENTED_EDGE('',*,*,#385,.F.);
#1415 = CYLINDRICAL_SURFACE('',#1416,1.5);
#1416 = AXIS2_PLACEMENT_3D('',#1417,#1418,#1419);
#1417 = CARTESIAN_POINT('',(-88.,22.,29.));
#1418 = DIRECTION('',(0.,-1.,2.2E-16));
#1419 = DIRECTION('',(-1.,0.,0.));
#1420 = ADVANCED_FACE('',(#1421),#1439,.F.);
#1421 = FACE_BOUND('',#1422,.F.);
#1422 = EDGE_LOOP('',(#1423,#1432,#1437,#1438));
#1423 = ORIENTED_EDGE('',*,*,#1424,.F.);
#1424 = EDGE_CURVE('',#1425,#1425,#1427,.T.);
#1425 = VERTEX_POINT('',#1426);
#1426 = CARTESIAN_POINT('',(-30.,29.,8.));
#1427 = CIRCLE('',#1428,1.5);
#1428 = AXIS2_PLACEMENT_3D('',#1429,#1430,#1431);
#1429 = CARTESIAN_POINT('',(-28.5,29.,8.));
#1430 = DIRECTION('',(0.,1.,-2.2E-16));
#1431 = DIRECTION('',(-1.,0.,0.));
#1432 = ORIENTED_EDGE('',*,*,#1433,.F.);
#1433 = EDGE_CURVE('',#397,#1425,#1434,.T.);
#1434 = B_SPLINE_CURVE_WITH_KNOTS('',1,(#1435,#1436),.UNSPECIFIED.,.F.,
  .F.,(2,2),(-4.,3.),.PIECEWISE_BEZIER_KNOTS.);
#1435 = CARTESIAN_POINT('',(-30.,22.,8.));
#1436 = CARTESIAN_POINT('',(-30.,29.,8.));
#1437 = ORIENTED_EDGE('',*,*,#396,.T.);
#1438 = ORIENTED_EDGE('',*,*,#1433,.T.);
#1439 = CYLINDRICAL_SURFACE('',#1440,1.5);
#1440 = AXIS2_PLACEMENT_3D('',#1441,#1442,#1443);
#1441 = CARTESIAN_POINT('',(-28.5,26.,8.));
#1442 = DIRECTION('',(0.,1.,-2.2E-16));
#1443 = DIRECTION('',(-1.,0.,0.));
#1444 = ADVANCED_FACE('',(#1445),#1456,.F.);
#1445 = FACE_BOUND('',#1446,.F.);
#1446 = EDGE_LOOP('',(#1447,#1448,#1454,#1455));
#1447 = ORIENTED_EDGE('',*,*,#786,.F.);
#1448 = ORIENTED_EDGE('',*,*,#1449,.T.);
#1449 = EDGE_CURVE('',#787,#408,#1450,.T.);
#1450 = LINE('',#1451,#1452);
#1451 = CARTESIAN_POINT('',(-10.,26.,15.));
#1452 = VECTOR('',#1453,1.);
#1453 = DIRECTION('',(0.,-1.,2.2E-16));
#1454 = ORIENTED_EDGE('',*,*,#407,.T.);
#1455 = ORIENTED_EDGE('',*,*,#1449,.F.);
#1456 = CYLINDRICAL_SURFACE('',#1457,1.5);
#1457 = AXIS2_PLACEMENT_3D('',#1458,#1459,#1460);
#1458 = CARTESIAN_POINT('',(-8.5,26.,15.));
#1459 = DIRECTION('',(0.,1.,-2.2E-16));
#1460 = DIRECTION('',(-1.,0.,0.));
#1461 = ADVANCED_FACE('',(#1462),#1473,.F.);
#1462 = FACE_BOUND('',#1463,.F.);
#1463 = EDGE_LOOP('',(#1464,#1465,#1471,#1472));
#1464 = ORIENTED_EDGE('',*,*,#797,.F.);
#1465 = ORIENTED_EDGE('',*,*,#1466,.T.);
#1466 = EDGE_CURVE('',#798,#419,#1467,.T.);
#1467 = LINE('',#1468,#1469);
#1468 = CARTESIAN_POINT('',(28.,26.,-40.));
#1469 = VECTOR('',#1470,1.);
#1470 = DIRECTION('',(0.,-1.,2.2E-16));
#1471 = ORIENTED_EDGE('',*,*,#418,.T.);
#1472 = ORIENTED_EDGE('',*,*,#1466,.F.);
#1473 = CYLINDRICAL_SURFACE('',#1474,1.5);
#1474 = AXIS2_PLACEMENT_3D('',#1475,#1476,#1477);
#1475 = CARTESIAN_POINT('',(29.5,26.,-40.));
#1476 = DIRECTION('',(0.,1.,-2.2E-16));
#1477 = DIRECTION('',(-1.,0.,0.));
#1478 = ADVANCED_FACE('',(#1479),#1490,.F.);
#1479 = FACE_BOUND('',#1480,.T.);
#1480 = EDGE_LOOP('',(#1481,#1487,#1488,#1489));
#1481 = ORIENTED_EDGE('',*,*,#1482,.T.);
#1482 = EDGE_CURVE('',#430,#809,#1483,.T.);
#1483 = LINE('',#1484,#1485);
#1484 = CARTESIAN_POINT('',(86.5,22.,-29.));
#1485 = VECTOR('',#1486,1.);
#1486 = DIRECTION('',(0.,1.,-2.2E-16));
#1487 = ORIENTED_EDGE('',*,*,#808,.T.);
#1488 = ORIENTED_EDGE('',*,*,#1482,.F.);
#1489 = ORIENTED_EDGE('',*,*,#429,.F.);
#1490 = CYLINDRICAL_SURFACE('',#1491,1.5);
#1491 = AXIS2_PLACEMENT_3D('',#1492,#1493,#1494);
#1492 = CARTESIAN_POINT('',(88.,22.,-29.));
#1493 = DIRECTION('',(0.,-1.,2.2E-16));
#1494 = DIRECTION('',(-1.,0.,0.));
#1495 = ADVANCED_FACE('',(#1496),#1507,.F.);
#1496 = FACE_BOUND('',#1497,.F.);
#1497 = EDGE_LOOP('',(#1498,#1499,#1505,#1506));
#1498 = ORIENTED_EDGE('',*,*,#819,.F.);
#1499 = ORIENTED_EDGE('',*,*,#1500,.T.);
#1500 = EDGE_CURVE('',#820,#441,#1501,.T.);
#1501 = LINE('',#1502,#1503);
#1502 = CARTESIAN_POINT('',(28.,26.,15.));
#1503 = VECTOR('',#1504,1.);
#1504 = DIRECTION('',(0.,-1.,2.2E-16));
#1505 = ORIENTED_EDGE('',*,*,#440,.T.);
#1506 = ORIENTED_EDGE('',*,*,#1500,.F.);
#1507 = CYLINDRICAL_SURFACE('',#1508,1.5);
#1508 = AXIS2_PLACEMENT_3D('',#1509,#1510,#1511);
#1509 = CARTESIAN_POINT('',(29.5,26.,15.));
#1510 = DIRECTION('',(0.,1.,-2.2E-16));
#1511 = DIRECTION('',(-1.,0.,0.));
#1512 = ADVANCED_FACE('',(#1513),#1524,.F.);
#1513 = FACE_BOUND('',#1514,.T.);
#1514 = EDGE_LOOP('',(#1515,#1521,#1522,#1523));
#1515 = ORIENTED_EDGE('',*,*,#1516,.T.);
#1516 = EDGE_CURVE('',#452,#831,#1517,.T.);
#1517 = LINE('',#1518,#1519);
#1518 = CARTESIAN_POINT('',(86.5,22.,29.));
#1519 = VECTOR('',#1520,1.);
#1520 = DIRECTION('',(0.,1.,-2.2E-16));
#1521 = ORIENTED_EDGE('',*,*,#830,.T.);
#1522 = ORIENTED_EDGE('',*,*,#1516,.F.);
#1523 = ORIENTED_EDGE('',*,*,#451,.F.);
#1524 = CYLINDRICAL_SURFACE('',#1525,1.5);
#1525 = AXIS2_PLACEMENT_3D('',#1526,#1527,#1528);
#1526 = CARTESIAN_POINT('',(88.,22.,29.));
#1527 = DIRECTION('',(0.,-1.,2.2E-16));
#1528 = DIRECTION('',(-1.,0.,0.));
#1529 = ADVANCED_FACE('',(#1530),#1546,.F.);
#1530 = FACE_BOUND('',#1531,.F.);
#1531 = EDGE_LOOP('',(#1532,#1533,#1539,#1540));
#1532 = ORIENTED_EDGE('',*,*,#867,.F.);
#1533 = ORIENTED_EDGE('',*,*,#1534,.T.);
#1534 = EDGE_CURVE('',#844,#465,#1535,.T.);
#1535 = LINE('',#1536,#1537);
#1536 = CARTESIAN_POINT('',(124.5,26.,22.5));
#1537 = VECTOR('',#1538,1.);
#1538 = DIRECTION('',(0.,-1.,2.22044604925E-16));
#1539 = ORIENTED_EDGE('',*,*,#462,.F.);
#1540 = ORIENTED_EDGE('',*,*,#1541,.F.);
#1541 = EDGE_CURVE('',#860,#463,#1542,.T.);
#1542 = LINE('',#1543,#1544);
#1543 = CARTESIAN_POINT('',(94.5,26.,22.5));
#1544 = VECTOR('',#1545,1.);
#1545 = DIRECTION('',(0.,-1.,2.22044604925E-16));
#1546 = PLANE('',#1547);
#1547 = AXIS2_PLACEMENT_3D('',#1548,#1549,#1550);
#1548 = CARTESIAN_POINT('',(124.5,26.,22.5));
#1549 = DIRECTION('',(-0.,-2.22044604925E-16,-1.));
#1550 = DIRECTION('',(-1.,0.,0.));
#1551 = ADVANCED_FACE('',(#1552),#1563,.F.);
#1552 = FACE_BOUND('',#1553,.F.);
#1553 = EDGE_LOOP('',(#1554,#1555,#1556,#1557));
#1554 = ORIENTED_EDGE('',*,*,#859,.F.);
#1555 = ORIENTED_EDGE('',*,*,#1541,.T.);
#1556 = ORIENTED_EDGE('',*,*,#488,.F.);
#1557 = ORIENTED_EDGE('',*,*,#1558,.F.);
#1558 = EDGE_CURVE('',#852,#481,#1559,.T.);
#1559 = LINE('',#1560,#1561);
#1560 = CARTESIAN_POINT('',(94.5,26.,52.5));
#1561 = VECTOR('',#1562,1.);
#1562 = DIRECTION('',(0.,-1.,2.22044604925E-16));
#1563 = PLANE('',#1564);
#1564 = AXIS2_PLACEMENT_3D('',#1565,#1566,#1567);
#1565 = CARTESIAN_POINT('',(94.5,26.,22.5));
#1566 = DIRECTION('',(-1.,0.,0.));
#1567 = DIRECTION('',(0.,2.22044604925E-16,1.));
#1568 = ADVANCED_FACE('',(#1569),#1580,.F.);
#1569 = FACE_BOUND('',#1570,.F.);
#1570 = EDGE_LOOP('',(#1571,#1572,#1573,#1574));
#1571 = ORIENTED_EDGE('',*,*,#851,.F.);
#1572 = ORIENTED_EDGE('',*,*,#1558,.T.);
#1573 = ORIENTED_EDGE('',*,*,#480,.F.);
#1574 = ORIENTED_EDGE('',*,*,#1575,.F.);
#1575 = EDGE_CURVE('',#842,#473,#1576,.T.);
#1576 = LINE('',#1577,#1578);
#1577 = CARTESIAN_POINT('',(124.5,26.,52.5));
#1578 = VECTOR('',#1579,1.);
#1579 = DIRECTION('',(0.,-1.,2.22044604925E-16));
#1580 = PLANE('',#1581);
#1581 = AXIS2_PLACEMENT_3D('',#1582,#1583,#1584);
#1582 = CARTESIAN_POINT('',(94.5,26.,52.5));
#1583 = DIRECTION('',(0.,2.22044604925E-16,1.));
#1584 = DIRECTION('',(1.,0.,0.));
#1585 = ADVANCED_FACE('',(#1586),#1592,.F.);
#1586 = FACE_BOUND('',#1587,.F.);
#1587 = EDGE_LOOP('',(#1588,#1589,#1590,#1591));
#1588 = ORIENTED_EDGE('',*,*,#841,.F.);
#1589 = ORIENTED_EDGE('',*,*,#1575,.T.);
#1590 = ORIENTED_EDGE('',*,*,#472,.F.);
#1591 = ORIENTED_EDGE('',*,*,#1534,.F.);
#1592 = PLANE('',#1593);
#1593 = AXIS2_PLACEMENT_3D('',#1594,#1595,#1596);
#1594 = CARTESIAN_POINT('',(124.5,26.,52.5));
#1595 = DIRECTION('',(1.,0.,0.));
#1596 = DIRECTION('',(0.,-2.22044604925E-16,-1.));
#1597 = ADVANCED_FACE('',(#1598),#1617,.T.);
#1598 = FACE_BOUND('',#1599,.F.);
#1599 = EDGE_LOOP('',(#1600,#1608,#1615,#1616));
#1600 = ORIENTED_EDGE('',*,*,#1601,.T.);
#1601 = EDGE_CURVE('',#676,#1602,#1604,.T.);
#1602 = VERTEX_POINT('',#1603);
#1603 = CARTESIAN_POINT('',(-81.,29.,-50.));
#1604 = LINE('',#1605,#1606);
#1605 = CARTESIAN_POINT('',(-81.,26.,-50.));
#1606 = VECTOR('',#1607,1.);
#1607 = DIRECTION('',(0.,1.,-2.2E-16));
#1608 = ORIENTED_EDGE('',*,*,#1609,.T.);
#1609 = EDGE_CURVE('',#1602,#1602,#1610,.T.);
#1610 = CIRCLE('',#1611,3.5);
#1611 = AXIS2_PLACEMENT_3D('',#1612,#1613,#1614);
#1612 = CARTESIAN_POINT('',(-77.5,29.,-50.));
#1613 = DIRECTION('',(0.,1.,-0.));
#1614 = DIRECTION('',(-1.,0.,0.));
#1615 = ORIENTED_EDGE('',*,*,#1601,.F.);
#1616 = ORIENTED_EDGE('',*,*,#675,.F.);
#1617 = CYLINDRICAL_SURFACE('',#1618,3.5);
#1618 = AXIS2_PLACEMENT_3D('',#1619,#1620,#1621);
#1619 = CARTESIAN_POINT('',(-77.5,26.,-50.));
#1620 = DIRECTION('',(0.,-1.,2.2E-16));
#1621 = DIRECTION('',(-1.,0.,0.));
#1622 = ADVANCED_FACE('',(#1623),#1642,.T.);
#1623 = FACE_BOUND('',#1624,.F.);
#1624 = EDGE_LOOP('',(#1625,#1633,#1640,#1641));
#1625 = ORIENTED_EDGE('',*,*,#1626,.T.);
#1626 = EDGE_CURVE('',#698,#1627,#1629,.T.);
#1627 = VERTEX_POINT('',#1628);
#1628 = CARTESIAN_POINT('',(-32.,29.,-50.));
#1629 = LINE('',#1630,#1631);
#1630 = CARTESIAN_POINT('',(-32.,26.,-50.));
#1631 = VECTOR('',#1632,1.);
#1632 = DIRECTION('',(0.,1.,-2.2E-16));
#1633 = ORIENTED_EDGE('',*,*,#1634,.T.);
#1634 = EDGE_CURVE('',#1627,#1627,#1635,.T.);
#1635 = CIRCLE('',#1636,3.5);
#1636 = AXIS2_PLACEMENT_3D('',#1637,#1638,#1639);
#1637 = CARTESIAN_POINT('',(-28.5,29.,-50.));
#1638 = DIRECTION('',(0.,1.,-0.));
#1639 = DIRECTION('',(-1.,0.,0.));
#1640 = ORIENTED_EDGE('',*,*,#1626,.F.);
#1641 = ORIENTED_EDGE('',*,*,#697,.F.);
#1642 = CYLINDRICAL_SURFACE('',#1643,3.5);
#1643 = AXIS2_PLACEMENT_3D('',#1644,#1645,#1646);
#1644 = CARTESIAN_POINT('',(-28.5,26.,-50.));
#1645 = DIRECTION('',(0.,-1.,2.2E-16));
#1646 = DIRECTION('',(-1.,0.,0.));
#1647 = ADVANCED_FACE('',(#1648),#1667,.T.);
#1648 = FACE_BOUND('',#1649,.F.);
#1649 = EDGE_LOOP('',(#1650,#1658,#1665,#1666));
#1650 = ORIENTED_EDGE('',*,*,#1651,.T.);
#1651 = EDGE_CURVE('',#720,#1652,#1654,.T.);
#1652 = VERTEX_POINT('',#1653);
#1653 = CARTESIAN_POINT('',(-81.,29.,8.));
#1654 = LINE('',#1655,#1656);
#1655 = CARTESIAN_POINT('',(-81.,26.,8.));
#1656 = VECTOR('',#1657,1.);
#1657 = DIRECTION('',(0.,1.,-2.2E-16));
#1658 = ORIENTED_EDGE('',*,*,#1659,.T.);
#1659 = EDGE_CURVE('',#1652,#1652,#1660,.T.);
#1660 = CIRCLE('',#1661,3.5);
#1661 = AXIS2_PLACEMENT_3D('',#1662,#1663,#1664);
#1662 = CARTESIAN_POINT('',(-77.5,29.,8.));
#1663 = DIRECTION('',(0.,1.,-0.));
#1664 = DIRECTION('',(-1.,0.,0.));
#1665 = ORIENTED_EDGE('',*,*,#1651,.F.);
#1666 = ORIENTED_EDGE('',*,*,#719,.F.);
#1667 = CYLINDRICAL_SURFACE('',#1668,3.5);
#1668 = AXIS2_PLACEMENT_3D('',#1669,#1670,#1671);
#1669 = CARTESIAN_POINT('',(-77.5,26.,8.));
#1670 = DIRECTION('',(0.,-1.,2.2E-16));
#1671 = DIRECTION('',(-1.,0.,0.));
#1672 = ADVANCED_FACE('',(#1673),#1692,.T.);
#1673 = FACE_BOUND('',#1674,.F.);
#1674 = EDGE_LOOP('',(#1675,#1683,#1690,#1691));
#1675 = ORIENTED_EDGE('',*,*,#1676,.T.);
#1676 = EDGE_CURVE('',#776,#1677,#1679,.T.);
#1677 = VERTEX_POINT('',#1678);
#1678 = CARTESIAN_POINT('',(-32.,29.,8.));
#1679 = LINE('',#1680,#1681);
#1680 = CARTESIAN_POINT('',(-32.,26.,8.));
#1681 = VECTOR('',#1682,1.);
#1682 = DIRECTION('',(0.,1.,-2.2E-16));
#1683 = ORIENTED_EDGE('',*,*,#1684,.T.);
#1684 = EDGE_CURVE('',#1677,#1677,#1685,.T.);
#1685 = CIRCLE('',#1686,3.5);
#1686 = AXIS2_PLACEMENT_3D('',#1687,#1688,#1689);
#1687 = CARTESIAN_POINT('',(-28.5,29.,8.));
#1688 = DIRECTION('',(0.,1.,-0.));
#1689 = DIRECTION('',(-1.,0.,0.));
#1690 = ORIENTED_EDGE('',*,*,#1676,.F.);
#1691 = ORIENTED_EDGE('',*,*,#775,.F.);
#1692 = CYLINDRICAL_SURFACE('',#1693,3.5);
#1693 = AXIS2_PLACEMENT_3D('',#1694,#1695,#1696);
#1694 = CARTESIAN_POINT('',(-28.5,26.,8.));
#1695 = DIRECTION('',(0.,-1.,2.2E-16));
#1696 = DIRECTION('',(-1.,0.,0.));
#1697 = ADVANCED_FACE('',(#1698,#1701),#1704,.T.);
#1698 = FACE_BOUND('',#1699,.T.);
#1699 = EDGE_LOOP('',(#1700));
#1700 = ORIENTED_EDGE('',*,*,#1609,.T.);
#1701 = FACE_BOUND('',#1702,.F.);
#1702 = EDGE_LOOP('',(#1703));
#1703 = ORIENTED_EDGE('',*,*,#1233,.T.);
#1704 = PLANE('',#1705);
#1705 = AXIS2_PLACEMENT_3D('',#1706,#1707,#1708);
#1706 = CARTESIAN_POINT('',(-53.,29.,-21.));
#1707 = DIRECTION('',(0.,1.,0.));
#1708 = DIRECTION('',(0.,0.,1.));
#1709 = ADVANCED_FACE('',(#1710,#1713),#1716,.T.);
#1710 = FACE_BOUND('',#1711,.T.);
#1711 = EDGE_LOOP('',(#1712));
#1712 = ORIENTED_EDGE('',*,*,#1634,.T.);
#1713 = FACE_BOUND('',#1714,.F.);
#1714 = EDGE_LOOP('',(#1715));
#1715 = ORIENTED_EDGE('',*,*,#1274,.T.);
#1716 = PLANE('',#1717);
#1717 = AXIS2_PLACEMENT_3D('',#1718,#1719,#1720);
#1718 = CARTESIAN_POINT('',(-53.,29.,-21.));
#1719 = DIRECTION('',(0.,1.,0.));
#1720 = DIRECTION('',(0.,0.,1.));
#1721 = ADVANCED_FACE('',(#1722,#1725),#1728,.T.);
#1722 = FACE_BOUND('',#1723,.T.);
#1723 = EDGE_LOOP('',(#1724));
#1724 = ORIENTED_EDGE('',*,*,#1659,.T.);
#1725 = FACE_BOUND('',#1726,.F.);
#1726 = EDGE_LOOP('',(#1727));
#1727 = ORIENTED_EDGE('',*,*,#1315,.T.);
#1728 = PLANE('',#1729);
#1729 = AXIS2_PLACEMENT_3D('',#1730,#1731,#1732);
#1730 = CARTESIAN_POINT('',(-53.,29.,-21.));
#1731 = DIRECTION('',(0.,1.,0.));
#1732 = DIRECTION('',(0.,0.,1.));
#1733 = ADVANCED_FACE('',(#1734,#1737),#1740,.T.);
#1734 = FACE_BOUND('',#1735,.T.);
#1735 = EDGE_LOOP('',(#1736));
#1736 = ORIENTED_EDGE('',*,*,#1684,.T.);
#1737 = FACE_BOUND('',#1738,.F.);
#1738 = EDGE_LOOP('',(#1739));
#1739 = ORIENTED_EDGE('',*,*,#1424,.T.);
#1740 = PLANE('',#1741);
#1741 = AXIS2_PLACEMENT_3D('',#1742,#1743,#1744);
#1742 = CARTESIAN_POINT('',(-53.,29.,-21.));
#1743 = DIRECTION('',(0.,1.,0.));
#1744 = DIRECTION('',(0.,0.,1.));
#1745 = ( GEOMETRIC_REPRESENTATION_CONTEXT(3) 
GLOBAL_UNCERTAINTY_ASSIGNED_CONTEXT((#1749)) 
GLOBAL_UNIT_ASSIGNED_CONTEXT((#1746,#1747,#1748)) REPRESENTATION_CONTEXT
('Context #1','3D Context with UNIT and UNCERTAINTY') );
#1746 = ( LENGTH_UNIT() NAMED_UNIT(*) SI_UNIT(.MILLI.,.METRE.) );
#1747 = ( NAMED_UNIT(*) PLANE_ANGLE_UNIT() SI_UNIT($,.RADIAN.) );
#1748 = ( NAMED_UNIT(*) SI_UNIT($,.STERADIAN.) SOLID_ANGLE_UNIT() );
#1749 = UNCERTAINTY_MEASURE_WITH_UNIT(LENGTH_MEASURE(5.E-05),#1746,
  'distance_accuracy_value','confusion accuracy');
#1750 = PRODUCT_RELATED_PRODUCT_CATEGORY('part',$,(#7));
#1751 = MECHANICAL_DESIGN_GEOMETRIC_PRESENTATION_REPRESENTATION('',(
    #1752),#1745);
#1752 = STYLED_ITEM('color',(#1753),#15);
#1753 = PRESENTATION_STYLE_ASSIGNMENT((#1754,#1760));
#1754 = SURFACE_STYLE_USAGE(.BOTH.,#1755);
#1755 = SURFACE_SIDE_STYLE('',(#1756));
#1756 = SURFACE_STYLE_FILL_AREA(#1757);
#1757 = FILL_AREA_STYLE('',(#1758));
#1758 = FILL_AREA_STYLE_COLOUR('',#1759);
#1759 = COLOUR_RGB('',0.678431390124,0.709803936702,0.741176476869);
#1760 = CURVE_STYLE('',#1761,POSITIVE_LENGTH_MEASURE(0.1),#1762);
#1761 = DRAUGHTING_PRE_DEFINED_CURVE_FONT('continuous');
#1762 = COLOUR_RGB('',9.803921802644E-02,9.803921802644E-02,
  9.803921802644E-02);
ENDSEC;
END-ISO-10303-21;
